<svg xmlns="http://www.w3.org/2000/svg" xmlns:xlink="http://www.w3.org/1999/xlink" width="1440" height="760" fill="none" viewBox="0 0 1440 760">
  <g clip-path="url(#clip0)">
    <path fill="#030018" d="M0 0h1440v760H0z"/>
    <path fill="url(#pattern0)" d="M331.728 308.285H444.75v2.512H331.728z"/>
    <path fill="url(#pattern1)" d="M314.25 310.438h113.411v2.871H314.25z"/>
    <path fill="url(#pattern2)" fill-opacity=".7" d="M364.353 292.497h38.063v35.882h-38.063z"/>
    <path fill="url(#pattern3)" d="M371.344 301.468h19.42v17.941h-19.42z"/>
    <g>
      <path fill="url(#pattern4)" d="M564 203.709h218.25v4.85H564z"/>
      <path fill="url(#pattern5)" d="M530.25 207.866h219v5.543h-219z"/>
      <path fill="url(#pattern6)" fill-opacity=".7" d="M627 173.222h73.5v69.289H627z"/>
      <path fill="url(#pattern7)" d="M640.5 190.544H678v34.644h-37.5z"/>
    </g>
    <g>
      <path fill="url(#pattern8)" d="M663.75 121.255h201.63v5.25H663.75z" transform="rotate(90 663.75 121.255)"/>
      <path fill="url(#pattern9)" d="M659.25 90.075h202.323v6H659.25z" transform="rotate(90 659.25 90.075)"/>
      <path fill="url(#pattern10)" fill-opacity=".7" d="M696.75 179.458h67.903v75H696.75z" transform="rotate(90 696.75 179.458)"/>
      <path fill="url(#pattern11)" d="M678 191.93h34.644v37.5H678z" transform="rotate(90 678 191.93)"/>
    </g>
    <g>
      <path fill="url(#pattern12)" d="M382.219 265.586h104.416v2.719H382.219z" transform="rotate(90 382.219 265.586)"/>
      <path fill="url(#pattern13)" d="M379.888 249.439h104.774v3.107H379.888z" transform="rotate(90 379.888 249.439)"/>
      <path fill="url(#pattern14)" fill-opacity=".7" d="M399.308 295.727h35.164v38.839h-35.164z" transform="rotate(90 399.308 295.727)"/>
      <path fill="url(#pattern15)" d="M389.598 302.185h17.941v19.42h-17.941z" transform="rotate(90 389.598 302.185)"/>
    </g>
    <g>
      <g clip-path="url(#clip1)">
        <path fill="url(#paint0_radial)" fill-rule="evenodd" d="M1081.06 275.672c92.8 92.804 92.26 244.12-1.36 338.013-93.625 93.621-244.941 94.437-338.018 1.361-92.804-93.076-92.259-244.393 1.361-338.014 93.893-93.62 245.21-94.437 338.017-1.36z" clip-rule="evenodd"/>
        <g filter="url(#filter0_d)">
          <path fill="url(#paint1_linear)" fill-rule="evenodd" d="M1156.71 445.495c0 59.329-21.22 113.488-56.33 155.671-44.63 53.614-111.855 87.906-187.242 87.906-114.304 0-210.374-78.925-236.5-185.064-4.627-18.779-7.076-38.374-7.076-58.513 0-8.981.544-17.69 1.361-26.399.544-5.443 1.36-10.886 2.177-16.329 20.411-114.032 120.019-200.849 240.038-200.849 33.475 0 65.317 6.804 94.162 18.779 44.91 18.778 83.01 50.892 109.68 91.443 25.04 38.374 39.73 84.095 39.73 133.355z" clip-rule="evenodd"/>
        </g>
        <path fill="#fff" fill-rule="evenodd" d="M1156.72 445.495c0 134.443-109.14 243.577-243.581 243.577-114.305 0-210.374-78.653-236.501-185.064.544.816 1.361 1.905 1.905 2.721 1.361 1.905 2.177 3.81 2.721 5.988.273 1.088.273 2.721.545 3.81.544 1.905 2.177 2.993 1.361.544 1.088 2.177 1.36 4.354 2.177 6.532 1.361 3.266 2.449 5.987 3.538 9.525.816 2.722 1.361 5.443 2.177 8.165.816 2.449 1.905 4.626 2.994 7.076 2.993 7.62 7.348 13.879 11.702 20.411 1.089 1.633 1.905 3.81 2.994 5.443 1.361 1.633 2.994 3.266 4.354 5.171 1.361 1.905 3.81 3.266 5.716 4.354 2.177 1.361 3.81 2.994 5.987 4.355 3.266 2.449 7.62 2.994 11.702 2.994 4.627 0 9.254-1.361 13.608-.273 7.62 1.905 8.709 12.247 12.791 17.962 1.633 2.45 4.627 3.811 7.348 4.627 3.538.817 5.988 2.177 8.709 4.355 1.905 1.632 4.899 2.721 7.348 2.993 2.722 0 2.178-1.361 2.178-3.81 0-3.538-2.45-5.443-4.355-8.165-1.088-1.632-1.361-2.993-2.177-4.898-.544-1.089-1.089-1.633-.544-2.994 1.905.272 3.81 1.633 5.171 2.722 2.993 2.449 6.803 4.082 10.341 5.443 1.633.816 2.994 1.36 4.627 2.449.816.544 1.905 1.633 2.721 2.177 2.722 1.089 5.988-3.266 6.532-5.443.544-2.449-.272-6.259-2.177-7.892-3.266-3.266-5.987-6.804-8.709-10.614-2.722-3.81-6.259-7.62-8.437-11.975-1.905-4.354-3.81-9.525-3.266-14.424.273-2.994 1.633-6.26 2.45-9.253.544-1.361.816-3.81 1.633-4.899 1.361-1.905 4.082-1.633 5.987-1.089 3.538.545 7.893.545 11.158 2.45 2.994 1.633 4.899 5.715 8.709 6.259 5.715.817 10.886-4.082 14.696-7.892 3.266-3.266 7.349-8.981 11.975-10.342 2.722-.816 5.443 1.089 8.165 1.633 1.088.272 2.449.816 3.81 1.089 2.177.272 3.81-.817 5.715-1.905 4.082-2.45 7.893-2.178 12.519-.817 2.177.544 3.538 1.905 5.171 3.266 2.722 1.905 5.715 3.81 8.437 5.715 2.449 1.633 4.899 3.266 5.987 6.26.544 1.36.544 1.905.272 3.538-.272 1.088-.816 2.177-.272 3.265.817 1.633 3.266 2.178 4.627 2.994 1.905 1.361 3.81 2.722 5.443 4.355 4.626 4.082 5.987 8.708 6.531 14.696.273 3.266-.272 6.804-2.721 9.525-2.722 2.722-7.348 2.994-9.798 5.988-1.905 2.449-2.449 5.715-2.993 8.708-.272 1.905 0 3.538-.817 5.443-.816 2.178-2.449 4.355-3.538 6.532-.816 1.633-1.905 2.994-2.721 4.899-.272 1.088-.545 2.177-1.089 2.994-1.088 2.449-2.994 4.626-5.443 5.715-3.266 1.633-6.259 3.81-10.07 3.81-2.177 0-4.898.544-7.076 0-.544-.272-1.088-.544-1.905-.817-.816-.272-1.36-.272-2.177-.544-2.177-.816-2.993-1.633-4.082-3.81-1.089-1.905-2.177-2.722-3.81-4.082-1.361-.817-2.722-1.361-4.355-2.178-.816-.544-2.449-.544-3.266-1.36-1.632-1.361.273-2.722 1.089-4.083 1.633-2.993 4.082-6.259 6.804-8.436 1.089-1.089 2.449-1.633 3.81-2.178 2.177-.544 2.994-.272 4.899.817 1.905 1.089 2.449 2.177 3.538 4.082-1.089.817-2.177 1.905-3.266 2.45-1.089.272-2.722.272-2.722 1.633 3.266 3.265 5.716 5.443 10.07 2.177 2.177-1.633 7.62-4.355 7.348-7.621 0-1.632-3.266-3.81-4.626-4.898-1.089-.817-2.722-1.633-3.811-2.45-1.36-1.088-1.905-2.449-2.993-3.538-1.089-1.088-2.722-2.177-4.082-3.265-1.089-1.089-2.45-1.361-3.811-2.178-1.36-.816-2.449-1.905-4.082-2.177-1.905-.544-4.627-1.633-6.532-1.633-4.354 0-8.436 4.355-11.158 7.62-2.177 2.722-6.259 7.893-4.899 11.703.545 1.633 2.178 2.177 2.722 3.538.272.544.544 1.905.816 2.449.545 2.178 0 4.355.545 6.532 2.177 6.804 3.266 14.696 10.069 18.234 1.089.545 1.905 1.089 3.266 1.361 1.089.272 2.722.272 3.81.816 2.722 1.089 4.627 2.178 7.348 2.722 3.266.544 6.26.816 9.526.816 4.354 0 8.709.545 12.519-1.36 2.177-1.089 4.899-2.722 6.531-4.355 1.906-2.177 2.178-4.898 2.994-7.62.544-2.449.544-5.987 2.45-7.892 1.632-1.633 4.082-1.906 5.987-3.538 2.449-2.45 4.626-5.716 6.259-8.981 2.178-4.355 5.171-7.893 7.349-11.975 1.36-2.45 3.265-5.443 5.17-7.076 1.905-1.633 4.355-2.45 7.076-2.722 2.178-.272 4.627-.816 6.532-1.633l6.532-2.449c1.633-.816 2.993-2.449 4.626-3.81 3.81-3.266 7.893-4.355 12.519-5.443 1.905-.272 3.266-.817 5.171-.272 1.633.544 2.994 1.36 4.627 1.633 2.177.544 4.899 1.36 7.076.816 8.164-2.449 2.449-9.525 1.088-14.968-2.721-10.886-2.721-21.5-2.721-32.659 0-3.265-.544-7.076.816-10.341.545-1.633.817-3.266 1.361-4.627.544-1.089 1.633-1.905 2.177-2.722.817-1.905.272-2.721 2.45-3.81 2.177-1.088 4.082-1.36 6.531-1.36 6.532 0 13.608-1.089 19.6 1.632 2.44 1.089 4.62 2.994 6.8 4.627 2.45 1.633 4.08 2.994 4.35 5.987.28 3.538 2.18 7.349 5.99 8.437 3.27.817 6.8 2.177 10.34 2.177 2.18 0 4.36-1.088 6.53-.816.55 0 1.37.544 1.91.816 1.09 0 2.18-.544 3.27-1.088 2.44-1.089 4.35-1.089 7.07-1.089 4.63 0 5.99-2.994 9.53-5.987 3.81-3.266 7.07-5.715 12.24-5.715 6.26 0 10.62-5.171 13.34-10.07 4.35-7.893 8.44-17.962 4.9-26.943-1.36-3.266-3.81-5.715-5.72-8.709-2.17-2.994-2.99-6.804-4.08-10.07-.82-2.993-4.08-6.259-7.35-7.076-2.72-.816-5.71-.272-7.62-2.449-1.9-1.905-4.35-4.627-5.71-6.804-2.18-3.538-3-8.981-3-13.063 0-1.361-.27-1.633-.54-2.45-.27-1.088.27-2.177 0-2.993-.55-2.994-1.36-5.715-1.91-8.709-.54-3.266-2.72-7.076-2.45-10.342 0-2.721 1.64-5.987 3.81-7.62 2.45-1.905 4.09-4.355 5.99-6.804.82-1.361 1.91-2.449 2.45-4.082.55-1.633.27-2.722.55-4.355.27-2.449 2.44-3.81 4.62-4.354 1.36-.272 3 .272 4.36 0 2.17-.272 4.08-1.633 5.44-3.266 2.99-3.81 2.45-9.525 2.18-14.152-.28-4.899-3.54-7.348-5.99-10.886-2.45-3.538-3.27-8.981-.55-12.791 1.09-1.361 2.73-2.45 3.27-4.355.55-1.905-.54-4.898-1.36-6.804-1.63-3.538-3.81-6.531-6.53-9.253-1.09-1.088-1.36-2.449-2.18-4.082-.82-1.905-2.18-3.538-2.99-5.443-.82-1.633-1.36-2.722-2.72-4.082-.82-.817-1.09-1.361-1.64-2.178-1.63-1.905-4.08-2.993-5.71-5.17-1.36-1.906-2.72-3.811-3.81-5.716-1.09-1.905-.82-4.082-1.09-6.259 0-2.994-1.63-4.899-3.27-7.62-.54-1.089-1.36-1.906-2.17-2.994-1.64-1.633-2.45-3.538-3.54-5.443-1.09-1.905-3.27-2.722-5.17-3.81-.82-.545-1.09-.817-2.18-.545-1.36.272-3.27 1.905-4.08 2.994-2.18 2.177-4.9 2.994-7.89 4.082-2.73.817-5.72 1.633-8.71 2.45-3.81 1.088-7.62 1.088-11.43 2.177-5.175 1.361-9.802 2.177-12.251 7.348-1.633 3.538-1.089 7.892-1.089 11.703 0 1.36-.272 2.721.273 4.354.544 1.905 1.633 3.81 1.905 5.987 1.088 5.443-.545 11.159-2.45 16.33-1.633 5.17-5.171 8.981-8.981 12.519-5.171 4.898-13.063 4.626-19.323 7.348-4.082 1.905-10.341 4.354-11.702 9.525-.817 3.81 1.361 6.26 1.905 9.525.544 2.178 0 4.627.544 6.532.817 2.722 0 4.082-2.449 5.987-1.089.817-2.449 1.905-2.994 3.538-.272.817 0 1.905 0 2.722-.272 1.633-1.905 2.721-3.266 3.266-2.449.816-5.171.816-7.62 2.177-2.177 1.361-2.994 3.538-5.715 4.082-1.905.545-3.538 0-5.715-.272-3.538-.544-7.076-.272-10.614-1.089-6.26-1.36-11.975-2.449-18.234-2.177-5.171.272-7.893 1.633-12.52-1.088-2.993-1.905-5.987-3.81-9.253-5.443-3.538-1.905-7.348-2.994-11.158-4.627-5.715-2.177-11.703-3.538-17.418-5.171-5.987-1.633-10.069-7.076-14.424-11.158-4.082-4.082-7.62-8.981-8.981-14.696-.816-3.811-.544-6.532 0-10.07 1.089-8.165-2.994-15.785-1.905-23.949 1.361-8.437 1.905-17.146 5.443-25.039 1.633-3.537 4.082-6.259 5.987-9.525 1.906-3.538 5.171-5.171 8.709-6.532 2.45-1.088 5.443-2.449 8.165-2.449 3.538 0 2.449 2.177 3.538 4.627.816 1.633 2.177 2.721 3.538 4.082 2.994 2.722 7.076 0 9.797-1.905 3.266-2.177 7.893-5.987 11.975-4.899 3.266.817 6.26 2.177 9.253 0 1.905-1.361 3.538-4.082 1.905-6.531-2.449-4.083-8.436-4.355-12.519-4.083-4.898 0-9.797-.272-14.696.545-2.994.544-5.987 1.088-8.981.544-3.266-.544-5.987-2.45-8.981-3.81-5.171-2.178-9.253-.272-14.152 1.633-5.715 2.177-11.43 6.259-13.88 11.974-2.177 4.899-1.088 10.342-1.36 15.241-.273 2.449-.545 4.899-1.361 7.076 0 2.994-2.45 5.987-4.627 8.709-4.082 5.171-5.987 10.614-4.899 16.873.545 2.722.273 4.082-.816 6.532-1.089 1.905-2.994 4.354-3.538 6.532-.544 2.177 1.089 2.449 2.722 3.81 1.905 1.633 3.81 4.082 4.354 6.531 1.361 5.988-1.633 11.703-6.532 15.241-2.993 2.449-7.348 3.266-9.525 6.532l-3.266 5.715c-1.905 2.993-4.082 4.626-7.348 5.987-3.266 1.633-7.348 1.905-10.07 4.627-1.633 1.633-2.177 2.993-2.993 5.171-1.361 2.993-3.266 5.987-4.899 8.981-1.633 2.993-3.266 4.898-5.987 6.531-3.538 1.905-6.804 3.81-10.07 5.716-3.538 2.449-5.987 5.715-8.981 8.708-3.538 3.538-7.348 4.627-11.975 5.716-6.804 1.36-13.607 3.265-20.411 4.354-5.988.816-11.158.544-16.874-1.361-4.626-1.633-8.981-3.266-13.335-5.715C684.258 296.9 787.404 201.918 913.139 201.918c134.441 0 243.581 109.133 243.581 243.577z" clip-rule="evenodd" opacity=".2"/>
        <path fill="#0FF" fill-rule="evenodd" d="M1007.3 220.697c-.54 0-11.699-1.905-21.497-3.266-10.342-1.361-8.436-5.715-17.418-8.165-8.981-2.449-25.31-5.715-28.031-5.171-2.722.545-5.988 2.994-11.703 2.722-5.987-.272-16.601-.816-24.494-.272-7.892.544-20.683-2.722-25.31 1.088-4.626 3.811-22.044 8.709-35.107 12.247-13.064 3.538-16.057 5.443-25.583 10.886-9.525 5.443-13.88 12.792-25.31 20.412-11.43 7.62-16.601 5.171-24.222 6.804-7.62 1.633-5.443 2.177-16.601 10.614-11.43 8.436-11.702 16.601-17.69 24.221-5.715 7.348-19.595 18.234-19.595 18.234l-8.981 17.146-7.348 12.791s5.443 8.165-6.259 20.956c-11.431 12.791-18.779 40.823-18.779 40.823h-.272c20.411-114.032 120.019-200.849 240.038-200.849 33.475 0 65.317 6.804 94.162 18.779z" clip-rule="evenodd"/>
        <path fill="#00FECF" fill-rule="evenodd" d="M949.879 686.35s18.506-13.336 20.139-25.038c1.633-11.703-8.709-13.064-9.525-19.867-.545-6.804 13.607-25.855 15.512-38.102 1.905-12.247 0-23.133-4.898-30.753-4.899-7.62-32.387-19.867-36.741-35.108-4.354-14.968-29.12-33.474-28.848-48.171.272-14.696 12.519-26.671 14.696-48.171 2.177-21.5-1.905-27.759-1.905-27.759s6.26 10.342 5.171 29.664c-1.089 19.323-15.241 32.659-16.329 46.266-1.089 13.608 30.481 41.368 31.025 45.994.544 4.627 0 6.26 5.715 11.975 5.443 5.715 26.127 18.234 31.298 26.671 5.171 8.437 11.43 1.633 13.063-10.614 1.633-12.247-.272-28.576 8.165-36.741 8.433-8.164 13.883-8.709 16.333-20.411 2.17-11.703 2.45-21.5-2.73-29.393-5.17-7.892-14.692-13.607-13.603-24.221 1.361-10.342-6.26-45.178-19.595-62.595-13.336-17.418-15.241-28.848-15.241-28.848s5.988 16.057 19.323 28.848c13.063 12.791 15.785 59.873 18.234 68.038 2.452 8.164 11.432 3.266 15.242 25.31 3.81 22.044-.55 31.57-4.08 35.652-3.81 4.354-13.339 6.804-16.333 13.063-2.993 6.26-1.905 31.57-2.721 39.462-.817 7.893-6.804 8.982-9.798 15.513-2.993 6.532-1.905 14.424-10.341 32.386-8.437 17.962-7.621 23.133 0 29.937 7.62 6.532 28.303 7.62 29.933 12.247 1.64 4.627-6.528 8.981-5.984 10.886.544 1.905 10.344-1.905 10.344-1.905s-29.939 13.063-55.521 15.785zM744.676 621.306s32.114 10.613 42.456-.817c10.341-11.43 6.531-23.949 9.253-41.911 2.721-17.963 3.538-24.222 17.418-29.937 14.151-5.715 27.215-3.538 32.114-13.336 4.898-9.525 20.139-25.038 20.139-25.038s-16.057 14.152-17.69 26.943c-1.633 13.064-29.665 1.905-43.545 19.595-9.525 12.247-1.088 41.368-8.708 59.33-7.349 17.962-38.646 15.512-38.646 15.512s-7.348-3.81-12.791-10.341zM1156.71 445.495c0 59.329-21.22 113.487-56.33 155.671-3.54-4.354-7.08-11.702-7.35-23.405-.82-24.494-.82-36.469-9.52-53.07-8.99-16.601-19.33-8.164-21.5-26.671-2.18-17.962-10.35-37.285-10.89-38.373.82 1.088 10.07 14.696 11.43 20.955 1.36 6.532.27 18.507 3.54 24.494 3.26 5.988 14.69 10.886 19.32 14.152 4.63 3.538 8.71 23.677 8.71 33.475 0 9.797 7.08 11.158 9.8 10.886 2.72-.272 16.33-13.608 17.69-18.779 1.36-5.17 14.42-36.468 3.54-50.892-10.89-14.424-22.32-10.886-30.49-22.861-8.16-11.975-13.06-11.158-34.29-23.949 1.64.816 15.24 6.531 25.86 12.247 11.16 5.987 9.52 10.886 15.51 16.329 5.99 5.715 15.78 7.62 21.5 11.158 5.72 3.81 8.98 20.684 12.52 27.487 3.54 6.804 16.06-3.538 11.97-29.392-4.08-25.582-13.6-25.31-15.24-35.924-1.63-10.614 12.25-4.355 17.15-15.241 4.9-10.886-1.63-29.12-4.9-37.829-3.27-8.437-12.25-12.247-22.04-20.139-10.07-7.893-7.9-11.975-20.42-19.051-9.79-5.443-21.5-6.804-26.12-7.076 5.44.272 20.14 1.089 26.94 3.266 8.44 2.721 13.34 15.785 19.6 20.683 6.26 4.899 17.96 6.532 19.86 2.178 1.91-4.355-.81-15.513-10.34-28.849-7.35-10.069-12.79-27.215-14.97-34.563 24.77 38.101 39.46 83.823 39.46 133.083zM669.562 449.849s11.974 6.532 18.778 7.076c6.804.544 16.874-4.354 28.848-5.171 11.975-1.088 25.039 3.538 35.652 2.722 0 0-17.962.816-25.038 0-7.076-.817-4.082-.817-12.791-.817-8.436 0-16.873 4.899-24.766 6.26-8.164 1.361-8.164-1.905-13.879.816-5.716 2.994-5.443 6.804-5.443 6.804s-1.361-15.24-1.361-17.69zM682.897 365.482s25.855 20.411 63.412 26.943c13.607 2.449 29.392-2.449 37.012 11.975 5.171 10.069 24.494 13.335 24.494 13.335s-11.43 1.361-20.956-5.171c-9.253-6.531-3.81-11.974-16.057-16.057-12.246-4.082-18.506-.272-27.215-1.633-8.437-1.36-29.12-14.696-35.107-8.981-6.532 6.26 1.632 14.424 11.974 21.773 10.342 7.348 22.045 1.633 29.393 3.538 7.348 1.905 9.253 2.993 9.253 2.993s-6.532-.816-16.329-1.36c-9.798-.545-11.159 3.538-18.507 0-7.348-3.538-16.601-13.336-20.139-20.412-3.538-7.076-2.177-11.975-8.164-16.873-5.988-4.899-16.33 0-16.33 0l3.266-10.07zM962.126 207.906s11.975 16.057 11.975 22.044c0 14.696-8.981 29.392-12.792 38.101-4.898 11.159-4.626 23.405-4.626 23.405v13.88s.272-14.968 2.721-22.044c2.45-7.076 7.349-7.893 8.709-13.336 1.361-5.443-.816-12.246 2.45-20.411 3.265-8.437 6.259-8.437 6.259-14.152s-.816-14.968 4.355-17.418c5.171-2.721 10.886-2.993 10.886-2.993s-16.602-5.988-29.937-7.076zM816.796 221.513s4.355 2.178 7.621 14.969c1.088 4.082 0 8.709 6.804 15.785 6.803 7.076 10.069 10.341 11.702 14.968 1.633 4.627 4.082 14.424 4.082 14.424s-5.17-14.968-8.708-19.323c-3.538-4.354-4.355-2.993-8.165-6.531-3.81-3.538-2.722-6.532-6.804-15.785-3.81-9.254-17.69-13.608-17.69-13.608l11.158-4.899z" clip-rule="evenodd"/>
      </g>
      <path fill="url(#paint2_linear)" d="M0-65h1497.65v580.879H0z"/>
      <g clip-path="url(#clip2)">
        <path fill="url(#paint3_linear)" d="M1495.47 515.375H-120.75V759.12h1616.22V515.375z"/>
      </g>
      <path fill="url(#paint4_linear)" d="M1423.63 573.159h69.26L2568.53 760l.11-1.466-1067.19-185.375h48.54v-1.467h-57.1l-190.77-33.145h247.87v-1.466h-256.33l-128.37-22.292-.11 1.466 119.92 20.826h-69.69l-109.97-22.292-.11 1.466 102.79 20.826h-70.96l-91.58-22.292-.21 1.466 85.66 20.826h-72.12l-73.283-22.292-.211 1.466 68.624 20.826h-73.277l-54.988-22.292-.317 1.466 51.498 20.826h-74.445l-36.482-22.292-.423 1.32 34.367 20.825h-75.502l-18.188-22.145-.741 1.173 17.237 20.972H746.43v-21.412h-1.057v21.559H669.13l17.237-20.972-.74-1.174-18.188 22.146h-75.503l34.473-20.826-.423-1.32-36.588 22.292h-74.445l51.498-20.972-.317-1.466-54.988 22.292h-73.281l68.629-20.826-.212-1.466L433 537.081h-72.118l85.654-20.826-.212-1.466-91.681 22.292h-70.955l102.996-20.826-.106-1.466-109.975 22.292h-69.687l119.916-20.826-.106-1.466-128.375 22.292H-57.871v1.466h247.762L-.874 571.692h-56.997v1.467h48.432L-1076.73 758.534l.11 1.466L-.98 573.159H98.315l-914.699 185.375.105 1.466 921.891-186.841h100.564l-762.215 185.375.212 1.466 768.242-186.841h101.833L2.404 667.899H-57.87v1.467h55.41l-293.232 89.168.212 1.466L2.404 669.512h182.2L-35.347 758.68l.317 1.467 223.441-90.488h183.257l-146.669 88.875.423 1.32 148.89-90.488h184.42l-73.388 89.314.741 1.174 74.339-90.342h185.161v89.755h1.057v-89.755h185.161l74.337 90.342.74-1.174-73.385-89.314h184.415l148.89 90.488.43-1.32-146.67-89.168h183.04l223.44 90.488.32-1.467-219.95-89.168h182.2l297.89 90.488.21-1.467-293.23-89.167h55.51v-1.467h-60.38l-311.84-94.447h101.83L2047.84 760l.21-1.466-762.42-185.375h100.56l922 186.841.1-1.466-914.7-185.375h30.04zm-834.02-34.612h76.665l-27.282 33.145H535.045l54.565-33.145zm-78.252 0h75.608l-54.565 33.145h-102.89l81.847-33.145zm-78.252 0h74.445l-81.847 33.145H323.977l109.129-33.145zm-327.494 33.145H7.586l190.765-33.145h70.955l-163.694 33.145zm106.697 0h-99.401l163.695-33.145h72.118l-136.412 33.145zm6.134 0l136.411-33.145h73.282l-109.129 33.145H218.443zm-30.244 96.207H7.268l311.844-94.74h102.997l-233.91 94.74zm185.901 0H192.006l233.909-94.74h104.16L374.1 667.899zm185.795 0H376.744l155.975-94.74h105.216l-78.04 94.74zm185.584 0H561.481l77.935-94.74h105.957v94.74h.106zm0-96.207H640.685l27.282-33.145h77.512v33.145zm313.321-33.145l109.13 33.145h-101.72l-81.852-33.145h74.442zm-78.249 0l81.849 33.145H959.508l-54.565-33.145h75.608zm-78.251 0l54.564 33.145H852.916l-27.282-33.145H902.3zm-155.764 0h77.512l27.282 33.145H746.536v-33.145zm0 129.352v-94.74h105.957l77.935 94.74H746.536zm185.478 0l-77.934-94.74h105.217l155.973 94.74H932.014zm185.896 0l-155.97-94.74h104.16l233.91 94.74h-182.1zm366.73 0h-180.82l-233.91-94.74h102.99l311.74 94.74zm-311.74-96.207l-109.13-33.145h73.28l136.42 33.145H1172.9zm106.7 0l-136.41-33.145h72.12L1379 571.692h-99.4zm106.7 0l-163.7-33.145h70.96l190.76 33.145h-98.02z"/>
      <g clip-path="url(#clip3)" opacity=".4">
        <path fill="url(#paint5_linear)" d="M165.506 516.091l29.353-3.335 27.069-2.808 28.825-10.179 9.667 4.036 26.19-14.918 27.419-14.392 23.905 15.445 38.141-6.494 28.826-15.444 11.776 8.951 20.741-10.531 17.752-12.637 13.534-1.404 15.995 6.67 15.819.351 20.565-2.457 15.116-5.266 7.558 2.282 11.249 5.441 42.008-26.678 18.28-8.775 18.631 5.09 14.589 12.285 9.843 4.563 10.194-3.159 14.062-10.53 15.994-16.147 20.917 8.249 18.631 3.861 16.171-17.024 12.303-7.547 7.207 6.669 10.37-.175 11.952 4.387 29.353-5.44 27.244-4.388 21.268 9.477 33.571-5.441 25.486 10.882 29.529-.351 33.044 23.518 24.607 13.339 31.46 7.722 20.04 15.972 35.68-1.404 17.05 3.685 3.52 6.67 10.72 4.563 25.31 9.828 39.72 12.988H165.506z"/>
        <path fill="#00FECF" d="M1209.39 516.969H165.506l-.175-1.755 56.421-6.143 29.001-10.355 9.667 4.037 25.838-14.743 27.947-14.742 24.08 15.62 37.614-6.494 29.178-15.62 11.776 8.951 20.213-10.18 17.753-12.812 14.061-1.229 16.171 6.494 15.467.351 20.389-2.457 15.292-5.265 7.733 2.281 11.074 5.266 41.657-26.327 18.631-8.951 19.334 5.441 14.589 12.11 9.491 4.388 9.667-2.984 13.886-10.53 16.346-16.498 21.444 8.424 18.104 3.862 15.995-16.849 12.831-7.898 7.558 6.845h10.018l11.953 4.212 29.177-5.441 27.595-4.388 20.916 9.478 33.572-5.265 25.662 10.881 29.353-.351 33.22 23.518 24.605 13.339 31.64 7.722 19.86 15.796 35.33-1.404h.18l17.57 3.686 3.52 6.669 10.54 4.563 25.14 9.829 45 14.918zm-1028.065-1.755H1198.31l-34.62-11.232-25.31-9.829-11.08-4.739-3.34-6.493-16.69-3.511-35.86 1.404-20.21-16.146-31.29-7.723-24.784-13.514-32.868-23.343-29.353.351-25.487-10.881-33.571 5.265h-.176l-20.916-9.302-27.068 4.388-29.705 5.44-11.952-4.387h-10.37l-7.031-6.319-11.6 7.196-16.523 17.2-19.158-4.037-20.565-8.073-15.643 15.796-14.413 10.706-10.546 3.159-10.37-4.914-14.413-12.11-18.104-4.739-17.928 8.6-42.36 26.853-11.777-5.616-7.206-2.107-15.116 5.09-20.565 2.457-16.17-.526-15.819-6.494-13.183 1.229-17.401 12.636-21.092 11.057-11.776-8.951-28.65 15.27-38.493 6.669-23.729-15.445-26.892 14.216-26.541 15.094-9.843-4.212-28.65 10.179-40.778 4.388z"/>
        <path fill="#00FECF" d="M251.105 516.267l-.703-.351 4.042-6.494-4.218-9.478.879-.351 4.218 10.004-4.218 6.67z"/>
        <path fill="#00FECF" d="M223.861 516.617l-2.461-6.493.879-.351 2.285 5.791 30.407-6.493.176.175 10.019 6.494-.527.702-9.843-6.494-30.935 6.669zM276.591 509.948h-.176l-16.17-5.616.351-.878 15.995 5.617 40.251-9.653-3.164-24.923.879-.175 3.339 25.624-41.305 10.004z"/>
        <path fill="#00FECF" d="M276.064 516.091h-.879l.879-6.669.878.175-.878 6.494zM348.128 516.442l-9.14-10.706-55.718-14.567.176-.702 56.07 14.567 9.315 10.706-.703.702z"/>
        <path fill="#00FECF" d="M368.517 508.369l-29.705-2.633-1.406-15.62.879-.176 1.406 15.094 28.65 2.457 14.062-13.339.527.703-14.413 13.514z"/>
        <path fill="#00FECF" d="M365.705 516.267l-.879-.352 3.163-8.073-9.315-21.412.879-.351 9.315 21.763-3.163 8.425z"/>
        <path fill="#00FECF" d="M391.718 516.442l-23.377-8.073.176-.878 23.553 8.249-.352.702zM408.065 496.083l-25.662-1.229-6.68-11.232.703-.527 6.504 10.882 24.256 1.229-2.637-27.204h.879l2.637 28.081z"/>
        <path fill="#00FECF" d="M404.725 468.879l-.703-.527.527-.702.703.527-.527.702zM404.056 468.426l-21.736 25.778.672.566 21.736-25.779-.672-.565zM405.428 516.091h-.879l2.637-20.71 9.315-18.955 18.983 7.196 1.582-17.2h.879l-1.758 18.428-19.334-7.371-8.788 18.253-2.637 20.359z"/>
        <path fill="#00FECF" d="M426.872 501.699l-19.334-5.616.175-.878 18.632 5.441 9.14-16.849h.175l20.565-7.196-1.582-22.816.879-.175 1.582 23.693-20.916 7.196-9.316 17.2z"/>
        <path fill="#00FECF" d="M453.237 516.793l-26.19-14.918-.878 14.216h-.879l.879-15.62.703.351 25.662 14.567 3.691-15.796.879.176-3.867 17.024z"/>
        <path fill="#00FECF" d="M456.968 499.291l-.453.752 27.236 16.416.453-.752-27.236-16.416z"/>
        <path fill="#00FECF" d="M457.103 500.646l-21.619-16.147.527-.702 20.214 15.094v-22.29l23.552-3.51-11.424-20.534.703-.351 12.128 21.587-24.081 3.51v23.343zM532.332 475.548l-11.601-18.428.703-.527 10.37 16.674 4.043-21.588h.879l-4.394 23.869z"/>
        <path fill="#00FECF" d="M456.752 500.12l-.176-.878 37.087-8.775-13.534-17.025 4.218-14.567.879.176-4.218 14.216 14.061 17.902-38.317 8.951z"/>
        <path fill="#00FECF" d="M493.839 516.091h-.879l1.055-25.8 32.692 5.265v.878l-31.989-5.09-.879 24.747z"/>
        <path fill="#00FECF" d="M527.234 515.74l-1.054-19.657-5.449-12.637-40.251-9.653.176-.877 40.778 9.828 5.625 13.163 1.054 19.833h-.879z"/>
        <path fill="#00FECF" d="M1062.8 509.246l-10.2-10.706-32.69 3.159-.18-.175-18.28-4.037-27.416 5.616h-.175l-10.898-4.212-18.455 4.212h-.176l-34.802-11.759-19.51 5.792-29.002-8.424-39.196 9.302-18.983-2.282-26.716 2.808-11.777-1.053-17.401 2.282-31.813 7.547-21.62-11.759-23.552 6.493-7.207-5.089-25.486 5.44-7.558-11.408h-19.51l-20.213 9.829-13.534-4.563-27.069 4.738-8.436-6.494-14.237 1.931v-.877l14.412-1.931.176.175 8.437 6.319 26.892-4.739 13.359 4.388 20.213-9.653h19.861l7.734 11.232 25.135-5.265 7.206 5.09 23.377-6.494 21.795 11.759 31.463-7.547 17.576-2.281 11.777 1.053 26.716-2.809 18.983 2.282 39.372-9.302 28.826 8.425 19.51-5.968.176.176 34.802 11.759 18.455-4.212 11.249 4.212 27.24-5.616h.18l18.28 4.212 33.04-3.159 10.2 10.706 22.67-2.457 13.89-2.107 23.9 2.809 17.75-5.792h.18l22.5 1.93v.878l-22.5-1.931-17.93 5.792h-.17l-23.73-2.808-13.71 2.106-23.2 2.457z"/>
        <path fill="#00FECF" d="M613.36 516.091l-3.691-25.624 1.407-19.306 5.8-20.359-2.109-26.853.878-.176 2.11 27.029v.175l-5.801 20.359-1.406 19.131 3.691 25.624h-.879zM590.335 516.091h-.879v-15.796l4.922-20.183-.352-26.853 2.636-20.71.879.175-2.636 20.535.351 27.028-4.921 20.008v15.796zM572.231 516.267l-.879-.351 4.746-20.009-9.316-20.359 12.304-30.187.879.351-12.304 29.836 9.316 20.184-4.746 20.535zM536.726 515.916l-.879-.351 4.922-21.764 6.327-9.302 7.558-25.273.879.176-7.734 25.448-6.327 9.478-4.746 21.588zM552.896 515.916l-3.691-15.27.879-.175 3.691 15.093-.879.352zM626.016 516.091h-.879l4.394-25.624 7.558-19.833v-17.2l-3.691-24.22.879-.176 3.691 24.221v17.551l-7.734 19.832-4.218 25.449zM634.277 516.266l-.879-.351 3.691-14.391h.176l15.116-14.919 7.558-20.359-1.934-20.359h.879l1.934 20.535-7.734 20.71-15.116 14.918-3.691 14.216z"/>
        <path fill="#00FECF" d="M637.792 470.985l-.527-.526 12.479-15.621-1.757-13.514h.879l1.757 13.865-12.831 15.796zM692.28 515.74h-.879l1.582-20.535-5.976-14.742-8.085-13.866-10.722-23.693.703-.351 10.722 23.518 8.261 14.041 5.976 14.918-1.582 20.71zM672.945 516.267l-3.339-14.568 1.582-18.604h.878l-1.581 18.429 3.339 14.392-.879.351z"/>
        <path fill="#00FECF" d="M655.369 515.916l-.703-.351 7.733-19.306 8.789-13.339-2.988-16.498.878-.176 2.988 16.849-8.964 13.69-7.733 19.131zM660.642 460.806l-.352-.878 13.71-5.441 12.479-2.632 18.632-11.057 14.061-16.849.703.526-14.237 17.025-18.807 11.232-12.655 2.633-13.534 5.441z"/>
        <path fill="#00FECF" d="M713.196 516.266l-.879-.351 2.461-9.302 19.159-16.146-23.202-23.87-24.431-14.04-10.546-15.27.703-.526 10.546 15.094 24.256 14.216 24.08 24.396-.352.351-19.334 16.322-2.461 9.126zM764.871 516.091h-.878v-19.13l10.018-19.482-23.728-23.694 7.382-25.975.879.175-7.382 25.625 23.904 23.694-10.195 19.832v18.955z"/>
        <path fill="#00FECF" d="M766.231 403.42l-8.878 25.534.83.288 8.878-25.534-.83-.288zM743.252 516.266l-.879-.351 4.043-16.673 3.34-13.865-15.292-28.608 13.534-28.959 5.976-16.849.879.351-5.976 16.849-13.359 28.608 15.116 28.608-7.382 30.889zM800.376 516.091h-.879l2.988-20.71-3.866-14.918-23.377-19.833-13.359-24.747 11.601-25.799.879.351-11.425 25.448 13.007 24.221 23.552 19.832 3.867 15.27v.175l-2.988 20.71zM783.151 516.266l-7.558-18.253-1.582-20.534.879-.176 1.582 20.71 7.558 17.902-.879.351zM796.626 414.319l-.874.082 2.956 31.63.874-.082-2.956-31.63zM858.027 516.091h-.878l3.515-27.73-21.092-40.894-4.043-23.167-12.128-14.743.703-.527 12.304 14.919 4.043 23.342 21.092 40.894-3.516 27.906z"/>
        <path fill="#00FECF" d="M821.292 516.091h-.878l1.054-18.429-2.109-33.873-20.389-17.2-23.201 14.217h-.176l-24.959-6.67-31.286 6.143L705.11 441.5l-22.673-8.776.351-.877 23.026 8.951 13.885 18.603 31.111-6.142 24.783 6.669 23.553-14.392.176.176 20.916 17.726 2.109 34.224-1.055 18.429zM836.936 516.267l-.879-.176 4.746-22.816-14.413-34.751-6.152-25.098-9.667-21.587.703-.351 9.667 21.587 6.328 25.274 14.413 34.926-4.746 22.992z"/>
        <path fill="#00FECF" d="M776.12 460.455h-.879l1.758-27.731 6.679-22.64.879.175-6.679 22.641-1.758 27.555zM894.587 516.266l-4.921-19.657 7.558-23.518-11.425-9.828-4.394-15.972-8.613-9.302-5.8-16.673-13.886-15.796-1.406 10.882 5.8 16.147 10.195 23.869 8.788 19.13-.351 16.849-3.867 23.694-.879-.176 3.867-23.518.351-16.673-8.612-18.955-10.37-23.869-5.801-16.498 1.758-12.812 15.116 17.375 5.8 16.673 8.789 9.302 4.218 15.796 11.601 10.004-7.558 24.045 4.921 19.13-.879.351z"/>
        <path fill="#00FECF" d="M1037.84 473.442h-.18l-24.08-5.44-12.65 2.808-.18-.176-21.795-15.796-22.498 1.405-36.383-24.572-46.93 6.67-.176-.176-15.995-5.09-20.916-8.6-36.911 22.115-21.795-13.515-15.116 3.159-4.394-7.897-19.335.351-18.807 31.591-8.612 6.494H660.29l-10.37-11.408-32.693-4.212-22.85 2.457h-.175l-14.941-9.478.528-.702 14.764 9.302 22.674-2.457 33.044 4.388h.176l10.195 11.233h50.269l8.261-6.319 18.807-31.767 20.389-.351 4.218 7.898 14.941-3.159 21.619 13.338 36.735-21.938h.352l20.916 8.775 15.995 5.09 47.105-6.669 36.384 24.571 22.498-1.404.176.175 21.793 15.621 12.48-2.633h.18l23.9 5.265 12.83-8.249-34.97-2.281-25.843-10.531-26.892-17.551-18.104 3.335h-.176l-35.329-18.604-32.517 5.792-9.491-2.633-15.995-4.914-25.838-7.371.352-.878 25.662 7.371 16.17 4.915 9.316 2.632 32.341-5.791h.176l35.505 18.603 18.104-3.334h.175l26.893 17.551 25.661 10.53 37.44 2.457-15.29 10.004zM962.785 498.891l-16.17-5.441-27.596-16.849-21.443-3.159-21.268 2.633-14.94 12.461-.528-.702 15.116-12.637 21.62-2.632h.175l21.62 3.334 27.595 16.849 16.171 5.266-.352.877z"/>
        <path fill="#00FECF" d="M916.558 516.267L909 490.818l9.667-14.568-16.698-17.726v-14.392l-9.667-8.775-15.995-11.233-2.812-10.004.879-.175 2.812 9.653 15.643 11.232 10.019 8.951v14.392l16.874 18.077-9.667 14.568 7.206 25.098-.703.351z"/>
        <path fill="#00FECF" d="M929.038 516.091h-.879l.879-18.604 2.636-13.514-18.631-27.906 5.8-14.743.879-9.828-10.897-13.164-1.758-9.477.879-.176 1.582 9.127 11.073 13.339-1.055 10.53-5.448 14.392 18.455 27.73-2.636 13.866-.879 18.428zM942.396 516.267l-.879-.176 2.637-13.514 2.109-9.829 10.722-6.142-.527-16.849-.352-13.866-11.776-18.955-11.601-17.024.703-.527 11.601 17.025 11.952 19.306.352 14.041.527 17.375-10.722 6.143-2.109 9.477-2.637 13.515zM971.222 516.266l-.879-.351 3.34-13.338-2.461-23.518 2.988-14.041 4.218-10.531-15.994-21.061-.352-14.216h.879l.351 14.041 16.171 21.061-4.394 10.881-2.988 13.866 2.461 23.693-3.34 13.514z"/>
        <path fill="#00FECF" d="M1006.9 480.112l-32.163-14.568-17.928 4.739-.176-.175-37.614-28.257-37.087 5.616-19.51-1.755-22.322 2.106v-.878l22.322-2.106 19.334 1.755 37.615-5.616.175.176 37.439 28.081 17.752-4.563h.176l29.877 13.514-4.22-7.722-11.244-19.657 5.976-8.425.703.527-5.625 7.898 11.07 19.306 5.45 10.004z"/>
        <path fill="#00FECF" d="M999.168 516.091h-.878l2.81-18.955 4.22-18.078.88.176-4.4 17.902-2.632 18.955zM1020.96 516.091l-1.58-14.918 5.45-13.339-11.6-20.183 2.11-6.494 4.57-5.266.7.527-4.57 5.09-1.93 5.967 11.6 20.184-5.27 13.514 1.4 14.918h-.88zM932.553 484.148l-.703-.526 7.734-9.653.351-16.849-2.636-14.567-4.922-11.935-8.261-14.216.703-.527 8.261 14.216 5.098 12.286 2.636 14.743-.351 17.024-7.91 10.004zM1043.64 516.091l-1.41-16.673-4.04-6.494-.88-20.008v-.176l3.34-9.653.88.351-3.34 9.478.88 19.832 4.04 6.494 1.41 16.849h-.88zM1052.6 516.091h-.88l.71-18.253 3.86-9.126-4.92-24.923.88-.175 5.1 25.098-4.04 9.477-.71 17.902zM1061.04 516.267l-.88-.352 2.46-7.371 7.56-9.828 1.23-18.955h.88l-1.41 19.13-7.56 10.004-2.28 7.372zM1097.77 516.266l-.87-.175 2.46-11.584-8.97-6.669.18-18.78h.88l-.18 18.429 8.97 6.669-2.47 12.11zM1123.61 516.091h-.88l.35-8.775-10.37-14.568-5.8-14.216.88-.351 5.8 14.216 10.37 14.568-.35 9.126z"/>
        <g>
          <path fill="#00FECF" d="M1150.33 516.267l-9.14-14.743-13.36-12.286-36.91 8.776-20.57 1.228-13.53-10.179-18.28 4.212h-.18l-32.69-13.69h-33.921l-14.413 7.723-.176-.176-43.766-30.539-27.244 6.845h-.175l-45.876-15.62-40.953 32.82h-.176l-24.432-2.808-39.899 13.163v-.175l-47.105-10.18-34.978 6.67-.176-.176-15.116-15.971-25.662.526-16.697 8.951-27.596-4.739-19.861 9.302-15.292-10.179-11.249 8.6-20.741-23.869.703-.702 20.214 23.342 10.897-8.6 15.468 10.355 19.685-9.126h.176l27.42 4.739 16.698-8.951 26.365-.527v.176l15.116 15.971 34.626-6.669 47.105 10.179 39.724-12.987h.175l24.432 2.808 40.954-32.821h.351l45.875 15.621 27.42-7.021.176.176 43.766 30.538 14.237-7.546h34.271l32.52 13.689 18.46-4.212 13.71 10.18 20.03-1.229 37.27-8.951 13.88 12.812 9.14 14.919-.7.351z"/>
        </g>
      </g>
      <path fill="url(#paint6_linear)" d="M-9 111.552h1457.6v404.326H-9z"/>
      <g clip-path="url(#clip4)">
        <path fill="url(#paint7_linear)" d="M1097.25 571.613V404.799l11.5-8.946 13.25 182.25-24.75-6.49z"/>
        <path fill="url(#paint8_linear)" d="M1108.72 395.853l13.11 182.25h8.64l-16.85-182.25h-4.9z"/>
        <path fill="url(#paint9_linear)" d="M861.186 508.227c252.804-62.563 571.304-135.797 914.774-213.032v20.009c-332.5 65.897-643.06 130.594-914.774 193.023z"/>
        <path fill="url(#paint10_linear)" d="M861.186 508.227h11.55c292.364-47.756 594.694-88.441 904.814-123.524l-1.59-69.499c-354.73 70.833-696.91 140.065-914.774 193.023z"/>
        <path fill="#2581A8" d="M1034.77 468.168l79.45 2.454 1.5 21.111-18.45-5.687v-12.868l-78.49 1.11-.2-2.501 16.19-3.619zM1390.47 383.236l1.16 9.737 61.5-12.806-22.66-6.536-40 9.605z"/>
        <path fill="#fff" fill-opacity=".31" d="M1775.96 290.926c-4.04 0-7.22-2.935-7.22-6.67s3.18-6.669 7.22-6.669c4.04 0 7.22 2.934 7.22 6.669 0 3.602-3.18 6.67-7.22 6.67zm-16.6-1.334c0-3.602-3.18-6.536-7.08-6.536-3.89 0-7.07 2.934-7.07 6.536 0 3.602 3.18 6.536 7.07 6.536 3.9.134 7.08-2.801 7.08-6.536zm-23.82 5.469c0-3.601-3.18-6.403-6.93-6.403-3.9 0-6.93 2.935-6.93 6.403 0 3.602 3.17 6.403 6.93 6.403 3.75.134 6.93-2.801 6.93-6.403zm-23.83 5.47c0-3.469-3.03-6.403-6.93-6.403-3.75 0-6.93 2.801-6.93 6.403 0 3.468 3.04 6.402 6.93 6.402 3.9 0 6.93-2.801 6.93-6.402zm-23.67 5.602c0-3.468-3.04-6.269-6.79-6.269s-6.79 2.801-6.79 6.269 3.04 6.27 6.79 6.27 6.79-2.802 6.79-6.27zm-23.83 5.469c0-3.335-3.03-6.136-6.64-6.136s-6.64 2.801-6.64 6.136 3.03 6.136 6.64 6.136 6.64-2.667 6.64-6.136zm-23.82 5.603c0-3.335-2.89-6.003-6.5-6.003s-6.49 2.668-6.49 6.003 2.88 6.003 6.49 6.003c3.61 0 6.5-2.668 6.5-6.003zm-23.68 5.602c0-3.334-2.88-6.002-6.49-6.002-3.61 0-6.5 2.668-6.5 6.002 0 3.335 2.89 6.003 6.5 6.003s6.49-2.801 6.49-6.003zm-23.82 5.603c0-3.201-2.89-5.869-6.35-5.869-3.47 0-6.35 2.668-6.35 5.869 0 3.202 2.88 5.869 6.35 5.869 3.46 0 6.35-2.667 6.35-5.869zm-23.68 5.603c0-3.202-2.74-5.736-6.21-5.736-3.46 0-6.2 2.534-6.2 5.736 0 3.201 2.74 5.736 6.2 5.736 3.33 0 6.21-2.535 6.21-5.736zm-23.82 5.736c0-3.068-2.74-5.603-6.06-5.603-3.32 0-6.07 2.535-6.07 5.603 0 3.068 2.75 5.602 6.07 5.602 3.32 0 6.06-2.534 6.06-5.602zm-23.68 5.602c0-3.068-2.74-5.602-6.06-5.602-3.32 0-6.06 2.534-6.06 5.602 0 3.068 2.74 5.603 6.06 5.603 3.32 0 6.06-2.535 6.06-5.603zm-23.82 5.736c0-3.068-2.6-5.469-5.92-5.469s-5.92 2.401-5.92 5.469c0 3.068 2.6 5.469 5.92 5.469s5.92-2.534 5.92-5.469zm-23.68 5.736c0-2.934-2.6-5.336-5.77-5.336-3.18 0-5.78 2.402-5.78 5.336 0 2.935 2.6 5.336 5.78 5.336 3.17 0 5.77-2.401 5.77-5.336zm-23.68 5.736c0-2.934-2.59-5.202-5.63-5.202-3.17 0-5.63 2.401-5.63 5.202 0 2.935 2.6 5.203 5.63 5.203 3.04 0 5.63-2.268 5.63-5.203zm-23.82 5.736c0-2.801-2.45-5.202-5.63-5.202-3.03 0-5.63 2.268-5.63 5.202 0 2.802 2.46 5.203 5.63 5.203 3.18 0 5.63-2.401 5.63-5.203zm-23.68 5.736c0-2.801-2.45-5.069-5.48-5.069-3.03 0-5.49 2.268-5.49 5.069 0 2.802 2.46 5.069 5.49 5.069 3.03 0 5.48-2.267 5.48-5.069zm-23.67 5.736c0-2.801-2.46-4.935-5.35-4.935-3.03 0-5.34 2.267-5.34 4.935 0 2.802 2.46 4.936 5.34 4.936 2.89.133 5.35-2.134 5.35-4.936zm-23.68 5.87c0-2.668-2.31-4.803-5.2-4.803s-5.2 2.135-5.2 4.803 2.31 4.802 5.2 4.802c2.74 0 5.2-2.134 5.2-4.802zm-23.82 5.869c0-2.668-2.31-4.802-5.2-4.802s-5.2 2.134-5.2 4.802c0 2.668 2.31 4.802 5.2 4.802 2.89-.133 5.2-2.268 5.2-4.802zm-23.68 5.736c0-2.535-2.31-4.669-5.05-4.669-2.75 0-5.06 2.134-5.06 4.669 0 2.534 2.31 4.669 5.06 4.669 2.88 0 5.05-2.135 5.05-4.669zm-23.68 5.869c0-2.534-2.17-4.535-4.91-4.535s-4.91 2.001-4.91 4.535c0 2.535 2.17 4.536 4.91 4.536s4.91-2.001 4.91-4.536zm-23.68 5.87c0-2.401-2.16-4.402-4.76-4.402-2.6 0-4.77 2.001-4.77 4.402 0 2.401 2.17 4.402 4.77 4.402 2.6 0 4.76-2.001 4.76-4.402zm-23.68 5.736c0-2.401-2.16-4.402-4.76-4.402-2.6 0-4.76 2.001-4.76 4.402 0 2.401 2.16 4.402 4.76 4.402 2.6 0 4.76-2.001 4.76-4.402zm-23.67 5.869c0-2.401-2.02-4.269-4.62-4.269s-4.62 1.868-4.62 4.269 2.02 4.269 4.62 4.269c2.45 0 4.62-1.868 4.62-4.269zm-23.68 5.87c0-2.268-2.02-4.136-4.48-4.136-2.45 0-4.47 1.868-4.47 4.136 0 2.267 2.02 4.135 4.47 4.135 2.46 0 4.48-1.868 4.48-4.135zm-23.68 5.869c0-2.268-2.02-4.002-4.33-4.002-2.45 0-4.33 1.868-4.33 4.002 0 2.268 2.02 4.002 4.33 4.002s4.33-1.734 4.33-4.002zm-23.82 5.869c0-2.134-1.88-4.002-4.33-4.002-2.31 0-4.33 1.735-4.33 4.002 0 2.135 1.87 4.002 4.33 4.002 2.45-.133 4.33-1.867 4.33-4.002zm-23.68 5.87c0-2.135-1.88-3.869-4.19-3.869-2.31 0-4.18 1.734-4.18 3.869 0 2.134 1.87 3.868 4.18 3.868 2.31-.133 4.19-1.734 4.19-3.868zm-23.68 5.736c0-2.135-1.87-3.735-4.04-3.735-2.31 0-4.04 1.734-4.04 3.735 0 2.134 1.87 3.735 4.04 3.735s4.04-1.601 4.04-3.735zm-23.67 5.869c0-2.001-1.74-3.602-3.9-3.602-2.17 0-3.9 1.601-3.9 3.602s1.73 3.602 3.9 3.602c2.16 0 3.9-1.601 3.9-3.602zm-23.68 5.869c0-2.001-1.74-3.601-3.9-3.601-2.17 0-3.9 1.6-3.9 3.601s1.73 3.602 3.9 3.602c2.16-.133 3.9-1.734 3.9-3.602zm-23.68 5.736c0-1.867-1.73-3.468-3.75-3.468-2.03 0-3.76 1.601-3.76 3.468 0 1.868 1.73 3.469 3.76 3.469 2.02 0 3.75-1.601 3.75-3.469z"/>
        <path fill="#A5FED7" d="M1775.96 288.258c-2.45 0-4.33-1.734-4.33-4.002 0-2.267 1.88-4.002 4.33-4.002 2.46 0 4.33 1.735 4.33 4.002 0 2.135-1.87 4.002-4.33 4.002zm-19.49 1.467c0-2.134-1.88-3.868-4.19-3.868-2.31 0-4.18 1.734-4.18 3.868 0 2.135 1.87 3.869 4.18 3.869 2.31 0 4.19-1.734 4.19-3.869zm-23.82 5.336c0-2.134-1.88-3.735-4.04-3.735-2.31 0-4.05 1.734-4.05 3.735s1.88 3.735 4.05 3.735c2.16.134 4.04-1.6 4.04-3.735zm-23.82 5.603c0-2.001-1.74-3.735-4.05-3.735-2.31 0-4.04 1.601-4.04 3.735 0 2.001 1.73 3.735 4.04 3.735s4.05-1.734 4.05-3.735zm-23.68 5.469c0-2.001-1.73-3.602-3.9-3.602s-3.9 1.601-3.9 3.602 1.73 3.602 3.9 3.602 3.9-1.601 3.9-3.602zm-23.82 5.469c0-1.867-1.74-3.468-3.76-3.468-2.02 0-3.75 1.601-3.75 3.468 0 1.868 1.73 3.469 3.75 3.469 2.02.133 3.76-1.468 3.76-3.469zm-23.83 5.603c0-1.868-1.58-3.335-3.61-3.335-2.02 0-3.6 1.467-3.6 3.335 0 1.867 1.58 3.335 3.6 3.335 2.03 0 3.61-1.468 3.61-3.335zm-23.67 5.602c0-1.867-1.59-3.334-3.61-3.334-2.02 0-3.61 1.467-3.61 3.334 0 1.868 1.59 3.335 3.61 3.335 2.02 0 3.61-1.467 3.61-3.335zM1590 328.41c0-1.734-1.58-3.201-3.46-3.201s-3.47 1.467-3.47 3.201 1.59 3.202 3.47 3.202c1.88 0 3.46-1.468 3.46-3.202zm-23.67 5.603c0-1.735-1.45-3.068-3.32-3.068-1.88 0-3.33 1.333-3.33 3.068 0 1.734 1.45 3.068 3.33 3.068 1.87 0 3.32-1.334 3.32-3.068zm-23.83 5.736c0-1.601-1.44-2.935-3.17-2.935-1.74 0-3.18 1.334-3.18 2.935 0 1.6 1.44 2.934 3.18 2.934 1.73 0 3.17-1.334 3.17-2.934zm-23.67 5.602c0-1.601-1.45-2.934-3.18-2.934-1.73 0-3.18 1.333-3.18 2.934 0 1.601 1.45 2.935 3.18 2.935 1.73 0 3.18-1.334 3.18-2.935zm-23.83 5.736c0-1.601-1.3-2.801-3.03-2.801-1.73 0-3.03 1.2-3.03 2.801 0 1.601 1.3 2.802 3.03 2.802 1.73 0 3.03-1.201 3.03-2.802zm-23.67 5.736c0-1.467-1.3-2.668-2.89-2.668s-2.89 1.201-2.89 2.668c0 1.468 1.3 2.668 2.89 2.668s2.89-1.2 2.89-2.668zm-23.68 5.736c0-1.467-1.3-2.534-2.75-2.534-1.44 0-2.74 1.2-2.74 2.534 0 1.468 1.3 2.535 2.74 2.535 1.45 0 2.75-1.067 2.75-2.535zm-23.82 5.736c0-1.334-1.16-2.534-2.75-2.534s-2.74 1.067-2.74 2.534c0 1.334 1.15 2.535 2.74 2.535 1.59 0 2.75-1.201 2.75-2.535zm-23.68 5.736c0-1.334-1.16-2.401-2.6-2.401-1.45 0-2.6 1.067-2.6 2.401 0 1.334 1.15 2.401 2.6 2.401 1.44 0 2.6-1.067 2.6-2.401zm-23.68 5.87c0-1.201-1.16-2.268-2.46-2.268-1.29 0-2.45 1.067-2.45 2.268 0 1.2 1.16 2.267 2.45 2.267 1.3 0 2.46-1.067 2.46-2.267zm-23.68 5.736c0-1.201-1.01-2.135-2.31-2.135s-2.31.934-2.31 2.135c0 1.2 1.01 2.134 2.31 2.134 1.16.133 2.31-.934 2.31-2.134zm-23.82 5.869c0-1.201-1.01-2.134-2.31-2.134s-2.31.933-2.31 2.134c0 1.2 1.01 2.134 2.31 2.134 1.3-.133 2.31-1.067 2.31-2.134zm-23.68 5.736c0-1.067-1.01-2.001-2.16-2.001-1.16 0-2.17.934-2.17 2.001 0 1.067 1.01 2.001 2.17 2.001 1.29 0 2.16-.801 2.16-2.001zm-23.68 5.869c0-1.067-.86-1.867-2.02-1.867-1.15 0-2.02.8-2.02 1.867s.87 1.868 2.02 1.868c1.16 0 2.02-.801 2.02-1.868zm-23.67 5.87c0-.934-.87-1.734-1.88-1.734-1.01 0-1.88.8-1.88 1.734 0 .933.87 1.734 1.88 1.734 1.01 0 1.88-.801 1.88-1.734zm-23.68 5.869c0-.934-.87-1.734-1.88-1.734-1.01 0-1.88.8-1.88 1.734 0 .934.87 1.734 1.88 1.734 1.01-.133 1.88-.8 1.88-1.734zm-23.68 5.736c0-.934-.72-1.601-1.73-1.601s-1.74.667-1.74 1.601c0 .934.73 1.601 1.74 1.601s1.73-.667 1.73-1.601zm-23.68 5.869c0-.8-.72-1.467-1.59-1.467-.86 0-1.58.667-1.58 1.467 0 .801.72 1.468 1.58 1.468.87 0 1.59-.667 1.59-1.468zm-23.68 5.87c0-.801-.72-1.334-1.44-1.334-.87 0-1.44.667-1.44 1.334 0 .8.72 1.334 1.44 1.334.72.133 1.44-.534 1.44-1.334zm-23.82 5.869c0-.667-.58-1.334-1.44-1.334-.72 0-1.45.534-1.45 1.334 0 .667.58 1.334 1.45 1.334.86 0 1.44-.667 1.44-1.334zm-23.68 5.87c0-.667-.57-1.201-1.3-1.201-.72 0-1.3.534-1.3 1.201s.58 1.2 1.3 1.2c.73 0 1.3-.533 1.3-1.2zm-23.67 5.869c0-.667-.58-1.067-1.16-1.067-.72 0-1.15.533-1.15 1.067 0 .667.57 1.067 1.15 1.067s1.16-.533 1.16-1.067zm-23.68 5.736c0-.534-.44-.934-1.01-.934-.58 0-1.01.4-1.01.934s.43.934 1.01.934c.57.133 1.01-.4 1.01-.934zm-23.68 5.869c0-.533-.43-.933-1.01-.933-.58 0-1.01.4-1.01.933 0 .534.43.934 1.01.934.58-.133 1.01-.533 1.01-.934zm-23.68 5.736c0-.4-.43-.8-.86-.8-.44 0-.87.4-.87.8 0 .401.43.801.87.801.43 0 .86-.4.86-.801z"/>
        <path fill="url(#paint11_linear)" d="M1000.5 569.443V404.689l6.35-8.836 12.4 180-18.75-6.41z"/>
        <path fill="url(#paint12_linear)" d="M1007.25 395.853l11.9 180h8.35l-15.43-180h-4.82z"/>
        <path fill="url(#paint13_linear)" d="M1335.32 620.145V227.03l19.2-21.077 38.7 429.399-57.9-15.207z"/>
        <path fill="url(#paint14_linear)" d="M1358.42 248.64l-13.71 15.874 6.78 238.777 9.53 5.603 7.51 119.655 7.94 2.401-7.94-122.723-14.01-10.539-7.5-231.707 11.69-13.473-.29-3.868z"/>
        <path fill="url(#paint15_linear)" d="M1354.52 205.953l38.7 429.399h26.71l-50.1-429.399h-15.31z"/>
      </g>
      <g clip-path="url(#clip5)">
        <path fill="url(#paint16_linear)" d="M351.354 571.613V404.799l-11.502-8.946-13.248 182.25 24.75-6.49z"/>
        <path fill="url(#paint17_linear)" d="M339.886 395.853l-13.108 182.25h-8.642l16.853-182.25h4.897z"/>
        <path fill="url(#paint18_linear)" d="M587.418 508.227C334.613 445.664 16.116 372.43-327.358 295.195v20.009C5.144 381.101 315.7 445.798 587.418 508.227z"/>
        <path fill="url(#paint19_linear)" d="M587.418 508.227h-11.55c-292.364-47.756-594.69-88.441-904.814-123.524l1.588-69.499c354.736 70.833 696.911 140.065 914.776 193.023z"/>
        <path fill="#2581A8" d="M413.839 468.168l-79.457 2.454-1.503 21.111 18.451-5.687v-12.868l78.492 1.11.202-2.501-16.185-3.619zM58.13 383.235l-1.155 9.738-61.504-12.806 22.667-6.536 39.992 9.604z"/>
        <path fill="#fff" fill-opacity=".31" d="M-327.358 290.926c4.043 0 7.219-2.935 7.219-6.67s-3.176-6.669-7.219-6.669c-4.042 0-7.218 2.934-7.218 6.669 0 3.602 3.176 6.67 7.218 6.67zm16.604-1.334c0-3.602 3.176-6.536 7.074-6.536 3.898 0 7.075 2.934 7.075 6.536 0 3.602-3.177 6.536-7.075 6.536-3.898.134-7.074-2.801-7.074-6.536zm23.822 5.469c0-3.601 3.176-6.403 6.93-6.403 3.898 0 6.93 2.935 6.93 6.403 0 3.602-3.176 6.403-6.93 6.403-3.754.134-6.93-2.801-6.93-6.403zm23.822 5.47c0-3.469 3.032-6.403 6.93-6.403 3.754 0 6.931 2.801 6.931 6.403 0 3.468-3.032 6.402-6.931 6.402-3.898 0-6.93-2.801-6.93-6.402zm23.678 5.602c0-3.468 3.032-6.269 6.786-6.269 3.754 0 6.786 2.801 6.786 6.269s-3.032 6.27-6.786 6.27c-3.754 0-6.786-2.802-6.786-6.27zm23.823 5.469c0-3.335 3.031-6.136 6.641-6.136 3.609 0 6.641 2.801 6.641 6.136s-3.032 6.136-6.641 6.136c-3.61 0-6.641-2.667-6.641-6.136zm23.822 5.603c0-3.335 2.887-6.003 6.497-6.003 3.609 0 6.497 2.668 6.497 6.003s-2.888 6.003-6.497 6.003c-3.61 0-6.497-2.668-6.497-6.003zm23.678 5.602c0-3.334 2.887-6.002 6.497-6.002 3.609 0 6.497 2.668 6.497 6.002 0 3.335-2.888 6.003-6.497 6.003-3.61 0-6.497-2.801-6.497-6.003zm23.822 5.603c0-3.201 2.888-5.869 6.353-5.869s6.352 2.668 6.352 5.869c0 3.202-2.887 5.869-6.352 5.869-3.465 0-6.353-2.667-6.353-5.869zm23.678 5.603c0-3.202 2.743-5.736 6.208-5.736 3.465 0 6.208 2.534 6.208 5.736 0 3.201-2.743 5.736-6.208 5.736-3.321 0-6.208-2.535-6.208-5.736zm23.822 5.736c0-3.068 2.743-5.603 6.064-5.603 3.32 0 6.064 2.535 6.064 5.603 0 3.068-2.743 5.602-6.064 5.602-3.32 0-6.064-2.534-6.064-5.602zm23.678 5.602c0-3.068 2.743-5.602 6.064-5.602 3.32 0 6.064 2.534 6.064 5.602 0 3.068-2.743 5.603-6.064 5.603-3.32 0-6.064-2.535-6.064-5.603zm23.822 5.736c0-3.068 2.6-5.469 5.92-5.469s5.92 2.401 5.92 5.469c0 3.068-2.6 5.469-5.92 5.469s-5.92-2.534-5.92-5.469zm23.678 5.736c0-2.934 2.6-5.336 5.775-5.336 3.177 0 5.775 2.402 5.775 5.336 0 2.935-2.598 5.336-5.775 5.336-3.176 0-5.775-2.401-5.775-5.336zm23.678 5.736c0-2.934 2.6-5.202 5.631-5.202 3.176 0 5.63 2.401 5.63 5.202 0 2.935-2.598 5.203-5.63 5.203s-5.63-2.268-5.63-5.203zm23.823 5.736c0-2.801 2.454-5.202 5.63-5.202 3.032 0 5.631 2.268 5.631 5.202 0 2.802-2.454 5.203-5.63 5.203-3.177 0-5.631-2.401-5.631-5.203zm23.677 5.736c0-2.801 2.455-5.069 5.487-5.069s5.486 2.268 5.486 5.069c0 2.802-2.454 5.069-5.486 5.069-3.032 0-5.486-2.267-5.486-5.069zm23.678 5.736c0-2.801 2.455-4.935 5.342-4.935 3.032 0 5.342 2.267 5.342 4.935 0 2.802-2.454 4.936-5.342 4.936-2.887.133-5.342-2.134-5.342-4.936zm23.678 5.87c0-2.668 2.31-4.803 5.198-4.803 2.887 0 5.197 2.135 5.197 4.803s-2.31 4.802-5.197 4.802c-2.743 0-5.198-2.134-5.198-4.802zm23.823 5.869c0-2.668 2.31-4.802 5.197-4.802 2.888 0 5.198 2.134 5.198 4.802 0 2.668-2.31 4.802-5.198 4.802-2.887-.133-5.197-2.268-5.197-4.802zm23.677 5.736c0-2.535 2.31-4.669 5.054-4.669 2.743 0 5.053 2.134 5.053 4.669 0 2.534-2.31 4.669-5.053 4.669-2.888 0-5.054-2.135-5.054-4.669zm23.678 5.869c0-2.534 2.166-4.535 4.909-4.535s4.909 2.001 4.909 4.535c0 2.535-2.166 4.536-4.909 4.536s-4.909-2.001-4.909-4.536zm23.678 5.87c0-2.401 2.166-4.402 4.765-4.402 2.599 0 4.764 2.001 4.764 4.402 0 2.401-2.165 4.402-4.764 4.402s-4.765-2.001-4.765-4.402zm23.678 5.736c0-2.401 2.166-4.402 4.765-4.402 2.598 0 4.764 2.001 4.764 4.402 0 2.401-2.166 4.402-4.764 4.402-2.599 0-4.765-2.001-4.765-4.402zm23.678 5.869c0-2.401 2.021-4.269 4.62-4.269s4.62 1.868 4.62 4.269-2.021 4.269-4.62 4.269c-2.454 0-4.62-1.868-4.62-4.269zm23.678 5.87c0-2.268 2.021-4.136 4.476-4.136 2.454 0 4.475 1.868 4.475 4.136 0 2.267-2.021 4.135-4.475 4.135-2.455 0-4.476-1.868-4.476-4.135zm23.678 5.869c0-2.268 2.021-4.002 4.331-4.002 2.455 0 4.332 1.868 4.332 4.002 0 2.268-2.022 4.002-4.332 4.002s-4.331-1.734-4.331-4.002zm23.822 5.869c0-2.134 1.877-4.002 4.332-4.002 2.31 0 4.331 1.735 4.331 4.002 0 2.135-1.877 4.002-4.331 4.002-2.455-.133-4.332-1.867-4.332-4.002zm23.678 5.87c0-2.135 1.877-3.869 4.187-3.869 2.31 0 4.187 1.734 4.187 3.869 0 2.134-1.877 3.868-4.187 3.868-2.31-.133-4.187-1.734-4.187-3.868zm23.678 5.736c0-2.135 1.877-3.735 4.043-3.735 2.31 0 4.042 1.734 4.042 3.735 0 2.134-1.877 3.735-4.042 3.735-2.166 0-4.043-1.601-4.043-3.735zm23.678 5.869c0-2.001 1.732-3.602 3.898-3.602 2.166 0 3.898 1.601 3.898 3.602s-1.732 3.602-3.898 3.602c-2.166 0-3.898-1.601-3.898-3.602zm23.678 5.869c0-2.001 1.732-3.601 3.898-3.601 2.166 0 3.898 1.6 3.898 3.601s-1.732 3.602-3.898 3.602c-2.166-.133-3.898-1.734-3.898-3.602zm23.678 5.736c0-1.867 1.732-3.468 3.754-3.468 2.021 0 3.753 1.601 3.753 3.468 0 1.868-1.732 3.469-3.753 3.469-2.022 0-3.754-1.601-3.754-3.469z"/>
        <path fill="#A5FED7" d="M-327.358 288.258c2.455 0 4.331-1.734 4.331-4.002 0-2.267-1.876-4.002-4.331-4.002-2.454 0-4.331 1.735-4.331 4.002 0 2.135 1.877 4.002 4.331 4.002zm19.491 1.467c0-2.134 1.877-3.868 4.187-3.868 2.31 0 4.187 1.734 4.187 3.868 0 2.135-1.877 3.869-4.187 3.869-2.31 0-4.187-1.734-4.187-3.869zm23.822 5.336c0-2.134 1.877-3.735 4.043-3.735 2.31 0 4.042 1.734 4.042 3.735s-1.876 3.735-4.042 3.735c-2.166.134-4.043-1.6-4.043-3.735zm23.823 5.603c0-2.001 1.732-3.735 4.042-3.735 2.31 0 4.043 1.601 4.043 3.735 0 2.001-1.733 3.735-4.043 3.735s-4.042-1.734-4.042-3.735zm23.678 5.469c0-2.001 1.732-3.602 3.898-3.602 2.165 0 3.898 1.601 3.898 3.602s-1.733 3.602-3.898 3.602c-2.166 0-3.898-1.601-3.898-3.602zm23.822 5.469c0-1.867 1.732-3.468 3.754-3.468 2.021 0 3.753 1.601 3.753 3.468 0 1.868-1.732 3.469-3.753 3.469-2.022.133-3.754-1.468-3.754-3.469zm23.822 5.603c0-1.868 1.588-3.335 3.61-3.335 2.021 0 3.609 1.467 3.609 3.335 0 1.867-1.588 3.335-3.609 3.335-2.022 0-3.61-1.468-3.61-3.335zm23.678 5.602c0-1.867 1.588-3.334 3.609-3.334 2.022 0 3.61 1.467 3.61 3.334 0 1.868-1.588 3.335-3.61 3.335-2.021 0-3.609-1.467-3.609-3.335zm23.822 5.603c0-1.734 1.588-3.201 3.465-3.201 1.877 0 3.465 1.467 3.465 3.201s-1.588 3.202-3.465 3.202c-1.877 0-3.465-1.468-3.465-3.202zm23.678 5.603c0-1.735 1.444-3.068 3.321-3.068 1.877 0 3.321 1.333 3.321 3.068 0 1.734-1.444 3.068-3.321 3.068-1.877 0-3.321-1.334-3.321-3.068zm23.822 5.736c0-1.601 1.444-2.935 3.177-2.935 1.732 0 3.176 1.334 3.176 2.935 0 1.6-1.444 2.934-3.176 2.934-1.733 0-3.177-1.334-3.177-2.934zm23.678 5.602c0-1.601 1.444-2.934 3.177-2.934 1.732 0 3.176 1.333 3.176 2.934 0 1.601-1.444 2.935-3.176 2.935-1.733 0-3.177-1.334-3.177-2.935zm23.823 5.736c0-1.601 1.3-2.801 3.032-2.801s3.032 1.2 3.032 2.801c0 1.601-1.3 2.802-3.032 2.802-1.733 0-3.032-1.201-3.032-2.802zm23.678 5.736c0-1.467 1.3-2.668 2.887-2.668 1.588 0 2.888 1.201 2.888 2.668 0 1.468-1.3 2.668-2.888 2.668-1.588 0-2.887-1.2-2.887-2.668zm23.678 5.736c0-1.467 1.299-2.534 2.743-2.534s2.743 1.2 2.743 2.534c0 1.468-1.3 2.535-2.743 2.535-1.444 0-2.743-1.067-2.743-2.535zm23.822 5.736c0-1.334 1.155-2.534 2.743-2.534 1.588 0 2.743 1.067 2.743 2.534 0 1.334-1.155 2.535-2.743 2.535-1.588 0-2.743-1.201-2.743-2.535zm23.678 5.736c0-1.334 1.155-2.401 2.599-2.401 1.443 0 2.598 1.067 2.598 2.401 0 1.334-1.155 2.401-2.598 2.401-1.444 0-2.6-1.067-2.6-2.401zm23.678 5.87c0-1.201 1.155-2.268 2.454-2.268 1.3 0 2.454 1.067 2.454 2.268 0 1.2-1.155 2.267-2.454 2.267-1.3 0-2.454-1.067-2.454-2.267zm23.678 5.736c0-1.201 1.01-2.135 2.31-2.135s2.31.934 2.31 2.135c0 1.2-1.01 2.134-2.31 2.134-1.155.133-2.31-.934-2.31-2.134zm23.822 5.869c0-1.201 1.011-2.134 2.31-2.134 1.299 0 2.31.933 2.31 2.134 0 1.2-1.011 2.134-2.31 2.134-1.299-.133-2.31-1.067-2.31-2.134zm23.678 5.736c0-1.067 1.01-2.001 2.165-2.001s2.166.934 2.166 2.001c0 1.067-1.011 2.001-2.166 2.001-1.299 0-2.165-.801-2.165-2.001zm23.678 5.869c0-1.067.866-1.867 2.021-1.867 1.155 0 2.021.8 2.021 1.867s-.866 1.868-2.021 1.868c-1.155 0-2.021-.801-2.021-1.868zm23.678 5.87c0-.934.866-1.734 1.877-1.734 1.01 0 1.876.8 1.876 1.734 0 .933-.866 1.734-1.876 1.734-1.011 0-1.877-.801-1.877-1.734zm23.678 5.869c0-.934.866-1.734 1.876-1.734 1.011 0 1.877.8 1.877 1.734 0 .934-.866 1.734-1.877 1.734-1.01-.133-1.876-.8-1.876-1.734zm23.677 5.736c0-.934.722-1.601 1.733-1.601 1.011 0 1.733.667 1.733 1.601 0 .934-.722 1.601-1.733 1.601-1.011 0-1.733-.667-1.733-1.601zm23.678 5.869c0-.8.722-1.467 1.589-1.467.866 0 1.588.667 1.588 1.467 0 .801-.722 1.468-1.588 1.468-.867 0-1.589-.667-1.589-1.468zm23.678 5.87c0-.801.722-1.334 1.444-1.334.866 0 1.444.667 1.444 1.334 0 .8-.722 1.334-1.444 1.334-.722.133-1.444-.534-1.444-1.334zm23.823 5.869c0-.667.577-1.334 1.443-1.334.722 0 1.444.534 1.444 1.334 0 .667-.577 1.334-1.444 1.334-.866 0-1.443-.667-1.443-1.334zm23.678 5.87c0-.667.577-1.201 1.299-1.201s1.299.534 1.299 1.201-.577 1.2-1.299 1.2-1.299-.533-1.299-1.2zm23.677 5.869c0-.667.578-1.067 1.155-1.067.722 0 1.155.533 1.155 1.067 0 .667-.577 1.067-1.155 1.067-.577 0-1.155-.533-1.155-1.067zm23.678 5.736c0-.534.433-.934 1.011-.934.577 0 1.011.4 1.011.934s-.434.934-1.011.934c-.578.133-1.011-.4-1.011-.934zm23.678 5.869c0-.533.433-.933 1.011-.933.577 0 1.011.4 1.011.933 0 .534-.434.934-1.011.934-.578-.133-1.011-.533-1.011-.934zm23.678 5.736c0-.4.433-.8.866-.8.434 0 .867.4.867.8 0 .401-.433.801-.867.801-.433 0-.866-.4-.866-.801z"/>
        <path fill="url(#paint20_linear)" d="M448.104 569.443V404.689l-6.349-8.836-12.401 180 18.75-6.41z"/>
        <path fill="url(#paint21_linear)" d="M441.354 395.853l-11.896 180h-8.354l15.435-180h4.815z"/>
        <path fill="url(#paint22_linear)" d="M113.282 620.145V227.03L94.08 205.953 55.387 635.352l57.895-15.207z"/>
        <path fill="url(#paint23_linear)" d="M90.182 248.64l13.716 15.874-6.786 238.777-9.529 5.603-7.507 119.655-7.941 2.401 7.94-122.723 14.005-10.539 7.508-231.707-11.695-13.473.29-3.868z"/>
        <path fill="url(#paint24_linear)" d="M94.08 205.953L55.387 635.352h-26.71l50.1-429.399H94.08z"/>
      </g>
    </g>
    <path fill="url(#paint25_linear)" d="M0 0h1346v810H0z"/>
  </g>
  <defs>
    <linearGradient id="paint1_linear" x1="1086.63" x2="855.239" y1="530.517" y2="137.278" gradientUnits="userSpaceOnUse">
      <stop stop-color="#016DB0"/>
      <stop offset="1" stop-color="#00FFD0"/>
    </linearGradient>
    <linearGradient id="paint2_linear" x1="748.823" x2="748.823" y1="-65" y2="515.879" gradientUnits="userSpaceOnUse">
      <stop stop-color="#AB64DD" stop-opacity="0"/>
      <stop offset=".188" stop-color="#AC63DE" stop-opacity="0"/>
      <stop offset="1" stop-color="#AC62DE"/>
    </linearGradient>
    <linearGradient id="paint3_linear" x1="687.308" x2="687.308" y1="461.194" y2="757.134" gradientUnits="userSpaceOnUse">
      <stop stop-color="#00CFA9"/>
      <stop offset=".526" stop-color="#031426"/>
      <stop offset="1" stop-color="#030018"/>
    </linearGradient>
    <linearGradient id="paint4_linear" x1="745.983" x2="745.983" y1="496.425" y2="782.503" gradientUnits="userSpaceOnUse">
      <stop stop-color="#01FAC9"/>
      <stop offset=".714" stop-color="#030018"/>
    </linearGradient>
    <linearGradient id="paint5_linear" x1="684.616" x2="684.616" y1="564.366" y2="204.282" gradientUnits="userSpaceOnUse">
      <stop stop-color="#00CFA9"/>
      <stop offset=".08" stop-color="#07A897"/>
      <stop offset=".18" stop-color="#0E7F84"/>
      <stop offset=".285" stop-color="#155C74"/>
      <stop offset=".396" stop-color="#1A4066"/>
      <stop offset=".514" stop-color="#1E2A5C"/>
      <stop offset=".644" stop-color="#211A55"/>
      <stop offset=".791" stop-color="#221150"/>
      <stop offset="1" stop-color="#230E4F"/>
    </linearGradient>
    <linearGradient id="paint6_linear" x1="719.801" x2="719.801" y1="111.552" y2="515.879" gradientUnits="userSpaceOnUse">
      <stop stop-color="#1DF2C9" stop-opacity="0"/>
      <stop offset=".865" stop-color="#1DF2C9" stop-opacity="0"/>
      <stop offset="1" stop-color="#25EFC8"/>
    </linearGradient>
    <linearGradient id="paint7_linear" x1="1105.9" x2="1111.3" y1="386.048" y2="572.339" gradientUnits="userSpaceOnUse">
      <stop stop-color="#AAFECC"/>
      <stop offset=".076" stop-color="#84FECD"/>
      <stop offset=".2" stop-color="#4CFECE"/>
      <stop offset=".307" stop-color="#23FECE"/>
      <stop offset=".391" stop-color="#09FECF"/>
      <stop offset=".441" stop-color="#00FECF"/>
      <stop offset="1" stop-color="#008391"/>
    </linearGradient>
    <linearGradient id="paint8_linear" x1="1117.58" x2="1123.04" y1="385.692" y2="572.238" gradientUnits="userSpaceOnUse">
      <stop stop-color="#00CFA9"/>
      <stop offset=".092" stop-color="#01A18F"/>
      <stop offset=".19" stop-color="#037878"/>
      <stop offset=".294" stop-color="#045564"/>
      <stop offset=".404" stop-color="#053954"/>
      <stop offset=".521" stop-color="#052348"/>
      <stop offset=".648" stop-color="#06133F"/>
      <stop offset=".794" stop-color="#060A3A"/>
      <stop offset="1" stop-color="#060738"/>
    </linearGradient>
    <linearGradient id="paint9_linear" x1="861.186" x2="1775.95" y1="401.738" y2="401.738" gradientUnits="userSpaceOnUse">
      <stop stop-color="#BAE8D5"/>
      <stop offset=".156" stop-color="#43E8E1"/>
      <stop offset=".595" stop-color="#0B5879"/>
      <stop offset=".78" stop-color="#095071"/>
      <stop offset="1" stop-color="#044061"/>
    </linearGradient>
    <linearGradient id="paint10_linear" x1="861.186" x2="1777.51" y1="411.741" y2="411.741" gradientUnits="userSpaceOnUse">
      <stop stop-color="#00CFA9"/>
      <stop offset=".092" stop-color="#01A18F"/>
      <stop offset=".19" stop-color="#037878"/>
      <stop offset=".294" stop-color="#045564"/>
      <stop offset=".404" stop-color="#053954"/>
      <stop offset=".521" stop-color="#052348"/>
      <stop offset=".648" stop-color="#06133F"/>
      <stop offset=".794" stop-color="#060A3A"/>
      <stop offset="1" stop-color="#060738"/>
    </linearGradient>
    <linearGradient id="paint11_linear" x1="1006.03" x2="1011.21" y1="386.039" y2="570.005" gradientUnits="userSpaceOnUse">
      <stop stop-color="#AAFECC"/>
      <stop offset=".076" stop-color="#84FECD"/>
      <stop offset=".2" stop-color="#4CFECE"/>
      <stop offset=".307" stop-color="#23FECE"/>
      <stop offset=".391" stop-color="#09FECF"/>
      <stop offset=".441" stop-color="#00FECF"/>
      <stop offset="1" stop-color="#008391"/>
    </linearGradient>
    <linearGradient id="paint12_linear" x1="1015.44" x2="1020.86" y1="385.761" y2="569.969" gradientUnits="userSpaceOnUse">
      <stop stop-color="#00CFA9"/>
      <stop offset=".092" stop-color="#01A18F"/>
      <stop offset=".19" stop-color="#037878"/>
      <stop offset=".294" stop-color="#045564"/>
      <stop offset=".404" stop-color="#053954"/>
      <stop offset=".521" stop-color="#052348"/>
      <stop offset=".648" stop-color="#06133F"/>
      <stop offset=".794" stop-color="#060A3A"/>
      <stop offset="1" stop-color="#060738"/>
    </linearGradient>
    <linearGradient id="paint13_linear" x1="1352.66" x2="1362.41" y1="182.513" y2="621.564" gradientUnits="userSpaceOnUse">
      <stop stop-color="#AAFECC"/>
      <stop offset=".076" stop-color="#84FECD"/>
      <stop offset=".2" stop-color="#4CFECE"/>
      <stop offset=".307" stop-color="#23FECE"/>
      <stop offset=".391" stop-color="#09FECF"/>
      <stop offset=".441" stop-color="#00FECF"/>
      <stop offset="1" stop-color="#008391"/>
    </linearGradient>
    <linearGradient id="paint14_linear" x1="1304.26" x2="1401.25" y1="197.758" y2="659.841" gradientUnits="userSpaceOnUse">
      <stop stop-color="#BAE8D5"/>
      <stop offset=".156" stop-color="#43E8E1"/>
      <stop offset=".595" stop-color="#0B5879"/>
      <stop offset=".78" stop-color="#095071"/>
      <stop offset="1" stop-color="#044061"/>
    </linearGradient>
    <linearGradient id="paint15_linear" x1="1381.03" x2="1390.79" y1="181.851" y2="621.508" gradientUnits="userSpaceOnUse">
      <stop stop-color="#00CFA9"/>
      <stop offset=".092" stop-color="#01A18F"/>
      <stop offset=".19" stop-color="#037878"/>
      <stop offset=".294" stop-color="#045564"/>
      <stop offset=".404" stop-color="#053954"/>
      <stop offset=".521" stop-color="#052348"/>
      <stop offset=".648" stop-color="#06133F"/>
      <stop offset=".794" stop-color="#060A3A"/>
      <stop offset="1" stop-color="#060738"/>
    </linearGradient>
    <linearGradient id="paint16_linear" x1="342.701" x2="337.306" y1="386.048" y2="572.339" gradientUnits="userSpaceOnUse">
      <stop stop-color="#AAFECC"/>
      <stop offset=".076" stop-color="#84FECD"/>
      <stop offset=".2" stop-color="#4CFECE"/>
      <stop offset=".307" stop-color="#23FECE"/>
      <stop offset=".391" stop-color="#09FECF"/>
      <stop offset=".441" stop-color="#00FECF"/>
      <stop offset="1" stop-color="#008391"/>
    </linearGradient>
    <linearGradient id="paint17_linear" x1="331.026" x2="325.565" y1="385.692" y2="572.238" gradientUnits="userSpaceOnUse">
      <stop stop-color="#00CFA9"/>
      <stop offset=".092" stop-color="#01A18F"/>
      <stop offset=".19" stop-color="#037878"/>
      <stop offset=".294" stop-color="#045564"/>
      <stop offset=".404" stop-color="#053954"/>
      <stop offset=".521" stop-color="#052348"/>
      <stop offset=".648" stop-color="#06133F"/>
      <stop offset=".794" stop-color="#060A3A"/>
      <stop offset="1" stop-color="#060738"/>
    </linearGradient>
    <linearGradient id="paint18_linear" x1="587.418" x2="-327.35" y1="401.738" y2="401.738" gradientUnits="userSpaceOnUse">
      <stop stop-color="#BAE8D5"/>
      <stop offset=".156" stop-color="#43E8E1"/>
      <stop offset=".595" stop-color="#0B5879"/>
      <stop offset=".78" stop-color="#095071"/>
      <stop offset="1" stop-color="#044061"/>
    </linearGradient>
    <linearGradient id="paint19_linear" x1="587.418" x2="-328.901" y1="411.741" y2="411.741" gradientUnits="userSpaceOnUse">
      <stop stop-color="#00CFA9"/>
      <stop offset=".092" stop-color="#01A18F"/>
      <stop offset=".19" stop-color="#037878"/>
      <stop offset=".294" stop-color="#045564"/>
      <stop offset=".404" stop-color="#053954"/>
      <stop offset=".521" stop-color="#052348"/>
      <stop offset=".648" stop-color="#06133F"/>
      <stop offset=".794" stop-color="#060A3A"/>
      <stop offset="1" stop-color="#060738"/>
    </linearGradient>
    <linearGradient id="paint20_linear" x1="442.579" x2="437.39" y1="386.039" y2="570.005" gradientUnits="userSpaceOnUse">
      <stop stop-color="#AAFECC"/>
      <stop offset=".076" stop-color="#84FECD"/>
      <stop offset=".2" stop-color="#4CFECE"/>
      <stop offset=".307" stop-color="#23FECE"/>
      <stop offset=".391" stop-color="#09FECF"/>
      <stop offset=".441" stop-color="#00FECF"/>
      <stop offset="1" stop-color="#008391"/>
    </linearGradient>
    <linearGradient id="paint21_linear" x1="433.164" x2="427.747" y1="385.761" y2="569.969" gradientUnits="userSpaceOnUse">
      <stop stop-color="#00CFA9"/>
      <stop offset=".092" stop-color="#01A18F"/>
      <stop offset=".19" stop-color="#037878"/>
      <stop offset=".294" stop-color="#045564"/>
      <stop offset=".404" stop-color="#053954"/>
      <stop offset=".521" stop-color="#052348"/>
      <stop offset=".648" stop-color="#06133F"/>
      <stop offset=".794" stop-color="#060A3A"/>
      <stop offset="1" stop-color="#060738"/>
    </linearGradient>
    <linearGradient id="paint22_linear" x1="95.944" x2="86.194" y1="182.513" y2="621.564" gradientUnits="userSpaceOnUse">
      <stop stop-color="#AAFECC"/>
      <stop offset=".076" stop-color="#84FECD"/>
      <stop offset=".2" stop-color="#4CFECE"/>
      <stop offset=".307" stop-color="#23FECE"/>
      <stop offset=".391" stop-color="#09FECF"/>
      <stop offset=".441" stop-color="#00FECF"/>
      <stop offset="1" stop-color="#008391"/>
    </linearGradient>
    <linearGradient id="paint23_linear" x1="144.34" x2="47.353" y1="197.758" y2="659.841" gradientUnits="userSpaceOnUse">
      <stop stop-color="#BAE8D5"/>
      <stop offset=".156" stop-color="#43E8E1"/>
      <stop offset=".595" stop-color="#0B5879"/>
      <stop offset=".78" stop-color="#095071"/>
      <stop offset="1" stop-color="#044061"/>
    </linearGradient>
    <linearGradient id="paint24_linear" x1="67.578" x2="57.813" y1="181.851" y2="621.508" gradientUnits="userSpaceOnUse">
      <stop stop-color="#00CFA9"/>
      <stop offset=".092" stop-color="#01A18F"/>
      <stop offset=".19" stop-color="#037878"/>
      <stop offset=".294" stop-color="#045564"/>
      <stop offset=".404" stop-color="#053954"/>
      <stop offset=".521" stop-color="#052348"/>
      <stop offset=".648" stop-color="#06133F"/>
      <stop offset=".794" stop-color="#060A3A"/>
      <stop offset="1" stop-color="#060738"/>
    </linearGradient>
    <linearGradient id="paint25_linear" x1="47.586" x2="1346" y1="285.211" y2="285.211" gradientUnits="userSpaceOnUse">
      <stop offset=".333" stop-color="#030119"/>
      <stop offset=".771" stop-opacity="0"/>
    </linearGradient>
    <pattern id="pattern0" width="1" height="1" patternContentUnits="objectBoundingBox">
      <use transform="scale(.00344 .14286)" xlink:href="#image0"/>
    </pattern>
    <pattern id="pattern1" width="1" height="1" patternContentUnits="objectBoundingBox">
      <use transform="scale(.00342 .125)" xlink:href="#image1"/>
    </pattern>
    <pattern id="pattern2" width="1" height="1" patternContentUnits="objectBoundingBox">
      <use transform="scale(.0102 .01)" xlink:href="#image2"/>
    </pattern>
    <pattern id="pattern3" width="1" height="1" patternContentUnits="objectBoundingBox">
      <use transform="scale(.02)" xlink:href="#image3"/>
    </pattern>
    <pattern id="pattern4" width="1" height="1" patternContentUnits="objectBoundingBox">
      <use transform="scale(.00344 .14286)" xlink:href="#image0"/>
    </pattern>
    <pattern id="pattern5" width="1" height="1" patternContentUnits="objectBoundingBox">
      <use transform="scale(.00342 .125)" xlink:href="#image1"/>
    </pattern>
    <pattern id="pattern6" width="1" height="1" patternContentUnits="objectBoundingBox">
      <use transform="scale(.0102 .01)" xlink:href="#image2"/>
    </pattern>
    <pattern id="pattern7" width="1" height="1" patternContentUnits="objectBoundingBox">
      <use transform="scale(.02)" xlink:href="#image3"/>
    </pattern>
    <pattern id="pattern8" width="1" height="1" patternContentUnits="objectBoundingBox">
      <use transform="scale(.00344 .14286)" xlink:href="#image0"/>
    </pattern>
    <pattern id="pattern9" width="1" height="1" patternContentUnits="objectBoundingBox">
      <use transform="scale(.00342 .125)" xlink:href="#image1"/>
    </pattern>
    <pattern id="pattern10" width="1" height="1" patternContentUnits="objectBoundingBox">
      <use transform="scale(.0102 .01)" xlink:href="#image2"/>
    </pattern>
    <pattern id="pattern11" width="1" height="1" patternContentUnits="objectBoundingBox">
      <use transform="scale(.02)" xlink:href="#image3"/>
    </pattern>
    <pattern id="pattern12" width="1" height="1" patternContentUnits="objectBoundingBox">
      <use transform="scale(.00344 .14286)" xlink:href="#image0"/>
    </pattern>
    <pattern id="pattern13" width="1" height="1" patternContentUnits="objectBoundingBox">
      <use transform="scale(.00342 .125)" xlink:href="#image1"/>
    </pattern>
    <pattern id="pattern14" width="1" height="1" patternContentUnits="objectBoundingBox">
      <use transform="scale(.0102 .01)" xlink:href="#image2"/>
    </pattern>
    <pattern id="pattern15" width="1" height="1" patternContentUnits="objectBoundingBox">
      <use transform="scale(.02)" xlink:href="#image3"/>
    </pattern>
    <clipPath id="clip0">
      <path fill="#fff" d="M0 0h1440v760H0z"/>
    </clipPath>
    <clipPath id="clip1">
      <path fill="#fff" d="M0 0h660.436v402.147H0z" transform="translate(575.836 115.822)"/>
    </clipPath>
    <clipPath id="clip2">
      <path fill="#fff" d="M0 0h1573.71v245.211H0z" transform="translate(-120.75 514.789)"/>
    </clipPath>
    <clipPath id="clip3">
      <path fill="#fff" d="M0 0h1044.06v114.432H0z" transform="translate(165.331 402.537)"/>
    </clipPath>
    <clipPath id="clip4">
      <path fill="#fff" d="M0 0h587.417v431.933H0z" transform="translate(861.186 203.419)"/>
    </clipPath>
    <clipPath id="clip5">
      <path fill="#fff" d="M0 0h587.417v431.933H0z" transform="matrix(-1 0 0 1 587.418 203.419)"/>
    </clipPath>
    <radialGradient id="paint0_radial" cx="0" cy="0" r="1" gradientTransform="rotate(-45 993.213 -877.486) scale(239.945 237.904)" gradientUnits="userSpaceOnUse">
      <stop stop-color="#40CCFF"/>
      <stop offset=".22" stop-color="#3FCAFC"/>
      <stop offset=".356" stop-color="#3DC3F4"/>
      <stop offset=".469" stop-color="#3AB8E5"/>
      <stop offset=".57" stop-color="#34A7D1"/>
      <stop offset=".662" stop-color="#2E92B6"/>
      <stop offset=".748" stop-color="#267896"/>
      <stop offset=".829" stop-color="#1C596F"/>
      <stop offset=".907" stop-color="#103442"/>
      <stop offset=".979" stop-color="#040D10"/>
      <stop offset="1"/>
    </radialGradient>
    <filter id="filter0_d" width="593.653" height="593.653" x="616.312" y="148.668" color-interpolation-filters="sRGB" filterUnits="userSpaceOnUse">
      <feFlood flood-opacity="0" result="BackgroundImageFix"/>
      <feColorMatrix in="SourceAlpha" result="hardAlpha" values="0 0 0 0 0 0 0 0 0 0 0 0 0 0 0 0 0 0 127 0"/>
      <feOffset/>
      <feGaussianBlur stdDeviation="26.625"/>
      <feComposite in2="hardAlpha" operator="out"/>
      <feColorMatrix values="0 0 0 0 0 0 0 0 0 0.996078 0 0 0 0 0.811765 0 0 0 1 0"/>
      <feBlend in2="BackgroundImageFix" result="effect1_dropShadow"/>
      <feBlend in="SourceGraphic" in2="effect1_dropShadow" result="shape"/>
    </filter>
  </defs>
</svg>
