<svg width="33" height="32" viewBox="0 0 33 32" fill="none" xmlns="http://www.w3.org/2000/svg">
<path d="M13.7001 13.424C13.2543 13.4607 12.8386 13.6637 12.5355 13.9927C12.2324 14.3217 12.0642 14.7527 12.0642 15.2C12.0642 15.6473 12.2324 16.0783 12.5355 16.4073C12.8386 16.7363 13.2543 16.9393 13.7001 16.976C13.9245 16.9678 14.145 16.9152 14.3489 16.8213C14.5528 16.7274 14.7361 16.594 14.8882 16.4289C15.0403 16.2638 15.1582 16.0702 15.2351 15.8593C15.312 15.6483 15.3463 15.4243 15.3361 15.2C15.3471 14.9755 15.3133 14.7511 15.2368 14.5398C15.1602 14.3286 15.0423 14.1346 14.8901 13.9693C14.7378 13.8041 14.5542 13.6707 14.3499 13.5771C14.1456 13.4835 13.9247 13.4314 13.7001 13.424ZM19.5401 13.424C19.1826 13.3946 18.8246 13.4738 18.5129 13.6511C18.2011 13.8285 17.9502 14.0958 17.7928 14.4181C17.6354 14.7404 17.579 15.1027 17.6308 15.4576C17.6827 15.8125 17.8404 16.1435 18.0834 16.4073C18.3264 16.6712 18.6434 16.8555 18.9929 16.9362C19.3423 17.017 19.708 16.9904 20.0421 16.86C20.3763 16.7296 20.6632 16.5013 20.8656 16.2052C21.0679 15.909 21.1761 15.5587 21.1761 15.2C21.1863 14.976 21.1521 14.7523 21.0755 14.5416C20.9988 14.3309 20.8813 14.1375 20.7296 13.9724C20.5779 13.8074 20.3951 13.6739 20.1916 13.5798C19.9882 13.4857 19.7681 13.4327 19.5441 13.424H19.5401Z" fill="white"/>
<path d="M27.3201 0H5.88012C5.448 0.00104852 5.02032 0.0872668 4.62154 0.253725C4.22276 0.420182 3.8607 0.663614 3.55607 0.970101C3.25145 1.27659 3.01022 1.64012 2.84619 2.0399C2.68216 2.43968 2.59854 2.86788 2.60012 3.3V24.928C2.59854 25.3601 2.68216 25.7883 2.84619 26.1881C3.01022 26.5879 3.25145 26.9514 3.55607 27.2579C3.8607 27.5644 4.22276 27.8078 4.62154 27.9743C5.02032 28.1407 5.448 28.227 5.88012 28.228H24.0241L23.1761 25.268L25.2241 27.168L27.1601 28.96L30.6001 32V3.3C30.6017 2.86788 30.5181 2.43968 30.3541 2.0399C30.19 1.64012 29.9488 1.27659 29.6442 0.970101C29.3395 0.663614 28.9775 0.420182 28.5787 0.253725C28.1799 0.0872668 27.7522 0.00104852 27.3201 0V0ZM21.1441 20.9C21.1441 20.9 20.5681 20.212 20.0881 19.6C21.2487 19.3288 22.276 18.6558 22.9881 17.7C22.4124 18.0831 21.7951 18.3998 21.1481 18.644C20.4038 18.9617 19.6253 19.1926 18.8281 19.332C17.4578 19.5843 16.0524 19.5789 14.6841 19.316C13.8808 19.1588 13.0935 18.9285 12.3321 18.628C11.6892 18.3787 11.075 18.0609 10.5001 17.68C11.1848 18.6165 12.1752 19.2843 13.3001 19.568C12.8201 20.176 12.2281 20.896 12.2281 20.896C11.2777 20.9217 10.3355 20.7133 9.48452 20.2892C8.63355 19.8651 7.89989 19.2383 7.34812 18.464C7.39881 15.2207 8.18524 12.0311 9.64812 9.136C10.9378 8.1232 12.5103 7.53614 14.1481 7.456L14.3081 7.648C12.7685 8.02902 11.3318 8.74466 10.1001 9.744C10.1001 9.744 10.4521 9.552 11.0441 9.28C12.1955 8.7546 13.4226 8.41441 14.6801 8.272C14.7697 8.25346 14.8607 8.24275 14.9521 8.24C16.0243 8.1003 17.1094 8.08956 18.1841 8.208C19.8743 8.40104 21.5103 8.92284 23.0001 9.744C21.8309 8.79227 20.473 8.09966 19.0161 7.712L19.2401 7.456C20.878 7.53614 22.4505 8.1232 23.7401 9.136C25.203 12.0311 25.9894 15.2207 26.0401 18.464C25.4843 19.2382 24.7476 19.8649 23.8943 20.2894C23.041 20.714 22.0969 20.9236 21.1441 20.9Z" fill="white"/>
</svg>
