<svg width="33" height="32" viewBox="0 0 33 32" fill="none" xmlns="http://www.w3.org/2000/svg">
<g clip-path="url(#clip0)">
<path d="M32.6 6.1C31.4 6.6 30.2 7 28.8 7.1C30.2 6.3 31.2 5 31.7 3.5C30.4 4.3 29 4.8 27.5 5.1C26.3 3.8 24.6 3 22.8 3C19.2 3 16.2 5.9 16.2 9.6C16.2 10.1 16.3 10.6 16.4 11.1C10.9 10.8 6.1 8.2 2.8 4.2C2.2 5.2 1.9 6.3 1.9 7.5C1.9 9.8 3.1 11.8 4.8 13C3.7 13 2.7 12.7 1.8 12.2V12.3C1.8 15.5 4.1 18.1 7.1 18.7C6.5 18.8 6 18.9 5.4 18.9C5 18.9 4.6 18.9 4.2 18.8C5 21.4 7.5 23.3 10.3 23.4C8.1 25.2 5.2 26.2 2.1 26.2C1.6 26.2 1 26.2 0.5 26.1C3.5 27.9 7 29 10.7 29C22.8 29 29.4 19 29.4 10.3C29.4 10 29.4 9.7 29.4 9.5C30.6 8.5 31.7 7.4 32.6 6.1Z" fill="white"/>
</g>
<defs>
<clipPath id="clip0">
<rect width="32" height="32" fill="white" transform="translate(0.600098)"/>
</clipPath>
</defs>
</svg>
